<svg width="1353" height="925" viewBox="0 0 1353 925" fill="none" xmlns="http://www.w3.org/2000/svg">
<circle cx="540.064" cy="223.064" r="70.9865" fill="#546973" stroke="#D9D9D9" stroke-width="4.15531"/>
<path d="M515.211 230.868C514.299 230.745 513.465 230.508 512.711 230.158C511.956 229.789 511.316 229.342 510.79 228.815C510.263 228.289 509.798 227.693 509.395 227.026C509.009 226.359 508.728 225.666 508.553 224.947C508.395 224.21 508.281 223.456 508.211 222.684C508.158 221.912 508.175 221.166 508.263 220.447C508.368 219.534 508.57 218.648 508.869 217.789C509.184 216.929 509.605 216.122 510.132 215.367C510.658 214.595 511.263 213.946 511.948 213.42C512.649 212.876 513.465 212.481 514.395 212.236C515.325 211.99 516.255 211.85 517.185 211.815C517.606 211.797 518.044 211.815 518.501 211.867C519.36 211.973 520.053 212.113 520.58 212.288C521.79 212.692 522.79 213.315 523.58 214.157C524.387 214.981 524.966 215.903 525.317 216.92C525.667 217.92 525.843 218.99 525.843 220.131C525.86 221.254 525.729 222.359 525.448 223.447C525.185 224.535 524.773 225.578 524.211 226.578C523.65 227.579 522.913 228.438 522.001 229.158C521.088 229.859 520.036 230.368 518.843 230.684C517.667 230.982 516.457 231.044 515.211 230.868ZM515.606 228.184C517.237 228.482 518.755 228.14 520.158 227.157C521.58 226.175 522.509 224.701 522.948 222.736C523.211 221.543 523.273 220.42 523.132 219.368C522.992 218.297 522.623 217.368 522.027 216.578C521.43 215.771 520.711 215.201 519.869 214.867C519.465 214.71 519.141 214.604 518.895 214.552C518.667 214.499 518.386 214.473 518.053 214.473C517.79 214.473 517.5 214.464 517.185 214.446C516.851 214.429 516.413 214.455 515.869 214.525C514.869 214.648 513.842 215.271 512.79 216.394C511.737 217.499 511.114 218.947 510.921 220.736C510.781 221.982 510.842 223.148 511.105 224.236C511.386 225.324 511.921 226.201 512.711 226.868C513.483 227.517 514.448 227.956 515.606 228.184ZM531.388 234.763C531.388 235.131 531.257 235.439 530.994 235.684C530.73 235.93 530.415 236.053 530.046 236.053C529.678 236.053 529.371 235.921 529.125 235.658C528.88 235.395 528.757 235.079 528.757 234.71C528.827 231.254 528.862 225.736 528.862 218.157C528.862 217.789 528.985 217.482 529.23 217.236C529.494 216.973 529.809 216.841 530.178 216.841C530.441 216.841 530.678 216.964 530.888 217.21C531.116 217.438 531.283 217.727 531.388 218.078L531.757 217.841C532.81 217.21 533.853 216.868 534.889 216.815C535.924 216.762 536.854 216.99 537.678 217.499C538.45 217.938 539.099 218.552 539.626 219.341C540.17 220.131 540.564 220.991 540.81 221.92C541.003 222.587 541.108 223.298 541.126 224.052C541.143 224.806 541.047 225.508 540.836 226.157C540.626 226.807 540.319 227.447 539.915 228.079C539.512 228.71 538.941 229.263 538.205 229.737C537.485 230.21 536.652 230.535 535.704 230.71C534.073 231.008 532.66 230.728 531.467 229.868C531.45 231.5 531.424 233.131 531.388 234.763ZM535.231 228.131C536.564 227.886 537.494 227.254 538.02 226.236C538.564 225.201 538.652 223.991 538.283 222.605C537.915 221.236 537.275 220.297 536.362 219.789C535.432 219.245 534.353 219.35 533.125 220.105C532.564 220.438 532.239 220.657 532.152 220.762C532.099 220.815 532.055 220.868 532.02 220.92C531.985 220.955 531.924 221.052 531.836 221.21L531.494 221.684V225.999C531.581 226.087 531.652 226.184 531.704 226.289C532.195 227.061 532.713 227.596 533.257 227.894C533.801 228.193 534.459 228.272 535.231 228.131ZM550.523 230.921C549.225 230.833 548.093 230.57 547.128 230.131C546.163 229.693 545.426 229.14 544.917 228.473C544.409 227.807 544.04 227.193 543.812 226.631C543.584 226.07 543.444 225.517 543.391 224.973C543.338 224.412 543.365 223.692 543.47 222.815C543.593 222.078 543.847 221.35 544.233 220.631C544.637 219.912 545.163 219.271 545.812 218.71C546.479 218.131 547.277 217.692 548.207 217.394C549.137 217.078 550.128 216.982 551.181 217.104C552.198 217.227 553.067 217.508 553.786 217.947C554.506 218.368 555.12 218.911 555.628 219.578C556.067 220.14 556.33 220.561 556.418 220.841C556.523 221.122 556.611 221.385 556.681 221.631C556.769 221.877 556.839 222.087 556.892 222.262C556.944 222.438 556.988 222.622 557.023 222.815C557.076 222.991 557.111 223.201 557.128 223.447C557.146 223.78 557.085 224.087 556.944 224.368C556.804 224.649 556.593 224.868 556.313 225.026C556.085 225.113 555.839 225.157 555.576 225.157L551.076 225.236C547.918 225.254 546.339 225.289 546.339 225.342H546.26C546.488 226.236 546.961 226.938 547.681 227.447C548.418 227.956 549.418 228.254 550.681 228.342C551.365 228.377 551.935 228.342 552.391 228.236C552.9 228.096 553.269 227.973 553.497 227.868C553.725 227.745 554.006 227.587 554.339 227.394C554.672 227.271 555.006 227.289 555.339 227.447C555.672 227.605 555.9 227.85 556.023 228.184C556.146 228.517 556.128 228.842 555.971 229.158C555.83 229.473 555.602 229.719 555.286 229.894C555.006 230.052 554.716 230.193 554.418 230.315C554.12 230.421 553.681 230.552 553.102 230.71C552.523 230.868 551.663 230.938 550.523 230.921ZM546.312 222.763C547.33 222.71 549.97 222.657 554.234 222.605C554.076 222.078 553.821 221.578 553.47 221.105C552.769 220.297 551.9 219.833 550.865 219.71C549.777 219.569 548.821 219.806 547.996 220.42C547.172 221.017 546.61 221.798 546.312 222.763ZM561.017 230.789C560.667 230.789 560.359 230.675 560.096 230.447C559.833 230.201 559.702 229.877 559.702 229.473C559.702 228.087 559.693 226.894 559.675 225.894C559.64 222.912 559.623 220.324 559.623 218.131C559.623 217.727 559.745 217.411 559.991 217.183C560.237 216.955 560.535 216.841 560.886 216.841C561.254 216.841 561.57 216.964 561.833 217.21C562.114 217.438 562.254 217.762 562.254 218.183V218.999C563.342 217.578 564.772 216.868 566.544 216.868C568.07 216.868 569.237 217.403 570.044 218.473C570.869 219.543 571.281 220.982 571.281 222.789C571.281 224.789 571.255 226.105 571.202 226.736L571.07 228.5L570.992 229.631C570.956 229.982 570.816 230.263 570.57 230.473C570.325 230.684 570.035 230.789 569.702 230.789C569.351 230.789 569.044 230.675 568.781 230.447C568.518 230.201 568.386 229.877 568.386 229.473C568.386 229.193 568.448 228.219 568.57 226.552C568.658 225.412 568.702 224.517 568.702 223.868C568.702 222.377 568.491 221.28 568.07 220.578C567.649 219.859 567 219.499 566.123 219.499C565.491 219.499 564.833 219.692 564.149 220.078C563.482 220.464 562.851 220.955 562.254 221.552L562.307 225.289L562.333 229.473C562.333 229.877 562.202 230.201 561.938 230.447C561.675 230.675 561.368 230.789 561.017 230.789Z" fill="#D9D9D9"/>
<circle cx="837.064" cy="223.064" r="70.9865" fill="#546973" stroke="#D9D9D9" stroke-width="4.15531"/>
<path d="M813.579 229.552C813.579 229.377 813.518 226.789 813.395 221.789C813.325 218.332 813.377 215.525 813.553 213.367C813.588 212.999 813.737 212.701 814 212.473C814.281 212.245 814.605 212.139 814.974 212.157C815.149 212.174 815.316 212.227 815.474 212.315C817.527 211.894 819.378 211.797 821.027 212.025C823.922 212.429 825.799 213.745 826.659 215.973C826.992 217.043 827.115 217.92 827.027 218.604C826.957 219.271 826.755 219.876 826.422 220.42C826.106 220.947 825.694 221.376 825.185 221.71C824.694 222.043 824.194 222.315 823.685 222.526C823.176 222.719 822.632 222.868 822.053 222.973C820.264 223.341 818.272 223.403 816.079 223.157C816.167 226.526 816.211 228.658 816.211 229.552C816.211 229.921 816.079 230.237 815.816 230.5C815.57 230.745 815.263 230.868 814.895 230.868C814.526 230.868 814.211 230.745 813.947 230.5C813.702 230.237 813.579 229.921 813.579 229.552ZM816.027 220.552C816.132 220.534 816.246 220.526 816.369 220.526C818.281 220.754 820 220.71 821.527 220.394C823.334 220.026 824.299 219.324 824.422 218.289C824.457 218.043 824.378 217.587 824.185 216.92C823.711 215.657 822.544 214.894 820.685 214.631C819.351 214.455 817.825 214.534 816.105 214.867C816.018 216.411 815.991 218.306 816.027 220.552ZM835.524 230.368C834.892 230.614 834.173 230.754 833.366 230.789C832.576 230.824 831.84 230.737 831.155 230.526C830.471 230.298 829.866 229.956 829.339 229.5C828.427 228.745 827.839 227.807 827.576 226.684C827.313 225.561 827.304 224.552 827.55 223.657C827.795 222.763 828.164 221.894 828.655 221.052C829.164 220.192 829.708 219.473 830.287 218.894C830.883 218.297 831.568 217.797 832.34 217.394C833.112 216.99 833.919 216.797 834.761 216.815C835.603 216.815 836.489 217.043 837.419 217.499C837.559 217.569 837.708 217.675 837.866 217.815C838.042 217.955 838.191 218.078 838.314 218.183L838.656 218.525C838.761 218.631 838.814 218.692 838.814 218.71C839.094 218.955 839.243 219.271 839.261 219.657C839.489 220.71 839.638 221.815 839.708 222.973C839.778 224.131 839.796 225.219 839.761 226.236C839.743 227.254 839.761 228.333 839.814 229.473C839.831 229.824 839.717 230.131 839.471 230.394C839.226 230.658 838.919 230.798 838.55 230.816C838.182 230.833 837.866 230.719 837.603 230.473C837.34 230.228 837.199 229.929 837.182 229.579V229.184C836.656 229.728 836.103 230.122 835.524 230.368ZM834.34 228C834.603 227.929 834.813 227.859 834.971 227.789C835.129 227.719 835.322 227.614 835.55 227.473C835.796 227.333 836.05 227.157 836.313 226.947C836.577 226.736 836.813 226.473 837.024 226.157C837.059 226.122 837.103 226.087 837.156 226.052C837.156 223.684 837.006 221.78 836.708 220.341C836.656 220.271 836.594 220.21 836.524 220.157C836.471 220.087 836.427 220.034 836.392 219.999C836.375 219.964 836.34 219.938 836.287 219.92C836.252 219.885 836.208 219.85 836.156 219.815C835.313 219.359 834.427 219.35 833.498 219.789C832.568 220.21 831.752 221.008 831.05 222.184C830.348 223.377 829.997 224.42 829.997 225.315C830.015 226.192 830.357 226.921 831.024 227.5C831.427 227.833 831.927 228.043 832.524 228.131C833.12 228.219 833.726 228.175 834.34 228ZM843.14 229.526C843.105 228.21 843.105 226.192 843.14 223.473C843.193 220.754 843.219 218.973 843.219 218.131C843.219 217.762 843.342 217.455 843.588 217.21C843.851 216.946 844.167 216.815 844.535 216.815C844.903 216.815 845.21 216.946 845.456 217.21C845.719 217.455 845.851 217.762 845.851 218.131C845.851 218.973 845.825 220.745 845.772 223.447C845.737 226.149 845.737 228.157 845.772 229.473C845.772 229.842 845.649 230.158 845.403 230.421C845.158 230.684 844.851 230.816 844.482 230.816C844.114 230.816 843.798 230.693 843.535 230.447C843.272 230.201 843.14 229.894 843.14 229.526ZM845.588 212.262C845.886 212.56 846.035 212.929 846.035 213.367C846.035 213.806 845.886 214.174 845.588 214.473C845.289 214.771 844.921 214.92 844.482 214.92C844.044 214.92 843.675 214.771 843.377 214.473C843.079 214.174 842.93 213.806 842.93 213.367C842.93 212.929 843.079 212.56 843.377 212.262C843.675 211.964 844.044 211.815 844.482 211.815C844.939 211.797 845.307 211.946 845.588 212.262ZM859.624 230.789C859.344 230.789 859.089 230.71 858.861 230.552C858.633 230.394 858.475 230.096 858.388 229.658C857.633 230.201 856.844 230.552 856.019 230.71C854.879 230.921 853.835 230.859 852.887 230.526C851.94 230.193 851.142 229.64 850.492 228.868C849.317 227.5 848.738 225.763 848.756 223.657C848.773 221.762 849.387 220.131 850.598 218.762C852.054 217.131 853.966 216.525 856.335 216.946C857.142 217.087 857.756 217.271 858.177 217.499L858.124 213.288C858.124 212.92 858.247 212.604 858.493 212.341C858.756 212.078 859.063 211.946 859.414 211.946C859.782 211.946 860.098 212.078 860.361 212.341C860.625 212.587 860.756 212.885 860.756 213.236C860.879 221.236 860.94 226.649 860.94 229.473C860.94 229.842 860.809 230.158 860.546 230.421C860.3 230.666 859.993 230.789 859.624 230.789ZM855.545 228.131C855.879 228.061 856.23 227.938 856.598 227.763C856.966 227.587 857.221 227.447 857.361 227.342C857.519 227.219 857.633 227.114 857.703 227.026C857.791 226.938 857.888 226.842 857.993 226.736C858.098 226.614 858.195 226.429 858.282 226.184C858.282 223.956 858.265 222.184 858.23 220.868C858.212 220.868 858.195 220.859 858.177 220.841C857.44 220.21 857.072 219.885 857.072 219.868C856.879 219.745 856.475 219.631 855.861 219.526C854.458 219.28 853.361 219.613 852.572 220.526C851.782 221.385 851.387 222.429 851.387 223.657C851.37 225.113 851.738 226.289 852.493 227.184C853.247 228.061 854.265 228.377 855.545 228.131Z" fill="#D9D9D9"/>
<circle cx="837.064" cy="462.064" r="70.9865" fill="#546973" stroke="#D9D9D9" stroke-width="4.15531"/>
<path d="M819.579 469.737C819.088 469.544 818.43 468.351 817.606 466.158L816.605 463.526L814.395 457.894L812.579 452.657C812.456 452.324 812.465 451.99 812.605 451.657C812.763 451.324 813.009 451.095 813.342 450.973C813.676 450.832 814.009 450.841 814.342 450.999C814.676 451.139 814.912 451.376 815.053 451.71L817.29 458.052C818.43 461.07 819.351 463.412 820.053 465.079L822 460.026C823.316 456.499 824.413 453.727 825.29 451.71C825.448 451.376 825.694 451.148 826.027 451.025C826.36 450.885 826.694 450.894 827.027 451.052C827.36 451.192 827.588 451.429 827.711 451.762C827.852 452.096 827.852 452.429 827.711 452.762C826.869 454.675 825.79 457.403 824.474 460.947C823 464.789 821.939 467.482 821.29 469.026C821.15 469.359 820.913 469.596 820.579 469.737C820.246 469.877 819.913 469.877 819.579 469.737ZM835.081 469.605C832.765 470.167 830.914 469.702 829.528 468.21C828.423 467.07 827.739 465.605 827.475 463.815C827.282 462.412 827.449 461.078 827.975 459.815C828.607 458.201 829.607 457.008 830.976 456.236C831.256 456.078 831.607 455.964 832.028 455.894C832.046 455.894 832.169 455.885 832.397 455.868C832.484 455.85 832.555 455.833 832.607 455.815C832.87 455.762 833.134 455.789 833.397 455.894C833.467 455.894 833.634 455.903 833.897 455.92C834.16 455.92 834.335 455.929 834.423 455.947C834.511 455.947 834.66 455.964 834.87 455.999C835.099 456.017 835.283 456.043 835.423 456.078L835.923 456.262C836.134 456.333 836.335 456.42 836.528 456.526C836.721 456.631 836.932 456.754 837.16 456.894C838.3 457.666 839.09 458.754 839.529 460.157C839.967 461.543 840.081 462.666 839.871 463.526C839.713 464.473 839.432 465.359 839.029 466.184C838.625 466.991 838.064 467.71 837.344 468.342C836.642 468.973 835.888 469.395 835.081 469.605ZM834.265 466.868C835.02 466.763 835.66 466.377 836.186 465.71C836.73 465.026 837.081 464.307 837.239 463.552C837.414 462.798 837.353 461.973 837.055 461.078C836.774 460.166 836.318 459.508 835.686 459.105C835.493 458.964 835.335 458.868 835.213 458.815C835.09 458.745 834.941 458.692 834.765 458.657C834.607 458.605 834.476 458.578 834.37 458.578C834.283 458.578 834.081 458.57 833.765 458.552C833.449 458.534 833.169 458.517 832.923 458.499C832.87 458.499 832.809 458.491 832.739 458.473C832.546 458.491 832.441 458.499 832.423 458.499L832.239 458.552C831.467 458.973 830.87 459.649 830.449 460.578C830.046 461.491 829.932 462.438 830.107 463.421C830.3 464.614 830.73 465.517 831.397 466.131C832.116 466.798 833.072 467.044 834.265 466.868ZM842.907 468.526C842.872 467.21 842.872 465.193 842.907 462.473C842.959 459.754 842.986 457.973 842.986 457.131C842.986 456.762 843.108 456.455 843.354 456.21C843.617 455.947 843.933 455.815 844.301 455.815C844.67 455.815 844.977 455.947 845.222 456.21C845.486 456.455 845.617 456.762 845.617 457.131C845.617 457.973 845.591 459.745 845.538 462.447C845.503 465.149 845.503 467.158 845.538 468.473C845.538 468.842 845.415 469.158 845.17 469.421C844.924 469.684 844.617 469.816 844.249 469.816C843.88 469.816 843.565 469.693 843.301 469.447C843.038 469.202 842.907 468.895 842.907 468.526ZM845.354 451.262C845.652 451.56 845.801 451.929 845.801 452.367C845.801 452.806 845.652 453.175 845.354 453.473C845.056 453.771 844.687 453.92 844.249 453.92C843.81 453.92 843.442 453.771 843.143 453.473C842.845 453.175 842.696 452.806 842.696 452.367C842.696 451.929 842.845 451.56 843.143 451.262C843.442 450.964 843.81 450.815 844.249 450.815C844.705 450.797 845.073 450.946 845.354 451.262ZM859.391 469.789C859.11 469.789 858.856 469.71 858.628 469.552C858.4 469.395 858.242 469.096 858.154 468.658C857.4 469.202 856.61 469.552 855.785 469.71C854.645 469.921 853.601 469.859 852.654 469.526C851.706 469.193 850.908 468.64 850.259 467.868C849.083 466.5 848.504 464.763 848.522 462.657C848.54 460.763 849.154 459.131 850.364 457.762C851.82 456.131 853.733 455.526 856.101 455.947C856.908 456.087 857.522 456.271 857.943 456.499L857.891 452.289C857.891 451.92 858.014 451.604 858.259 451.341C858.522 451.078 858.829 450.946 859.18 450.946C859.549 450.946 859.865 451.078 860.128 451.341C860.391 451.587 860.523 451.885 860.523 452.236C860.645 460.236 860.707 465.649 860.707 468.473C860.707 468.842 860.575 469.158 860.312 469.421C860.066 469.666 859.759 469.789 859.391 469.789ZM855.312 467.131C855.645 467.061 855.996 466.938 856.364 466.763C856.733 466.587 856.987 466.447 857.128 466.342C857.286 466.219 857.4 466.114 857.47 466.026C857.557 465.938 857.654 465.842 857.759 465.736C857.864 465.614 857.961 465.429 858.049 465.184C858.049 462.956 858.031 461.184 857.996 459.868C857.979 459.868 857.961 459.859 857.943 459.841C857.207 459.21 856.838 458.885 856.838 458.868C856.645 458.745 856.242 458.631 855.628 458.526C854.224 458.28 853.127 458.613 852.338 459.526C851.548 460.385 851.154 461.429 851.154 462.657C851.136 464.114 851.505 465.289 852.259 466.184C853.013 467.061 854.031 467.377 855.312 467.131Z" fill="#D9D9D9"/>
<circle cx="837.064" cy="701.064" r="70.9865" fill="#546973" stroke="#D9D9D9" stroke-width="4.15531"/>
<path d="M820.647 682.155C820.176 681.457 819.86 680.42 819.698 679.042C819.601 678.02 819.577 676.812 819.625 675.418C819.658 674.51 819.722 673.286 819.82 671.746C819.933 670.205 819.998 669.208 820.014 668.754C820.014 668.414 820.136 668.13 820.379 667.903C820.622 667.676 820.914 667.563 821.255 667.563C821.595 667.563 821.879 667.684 822.106 667.927C822.333 668.171 822.446 668.462 822.446 668.803C822.43 669.241 822.365 670.238 822.252 671.794C822.154 673.351 822.09 674.583 822.057 675.491C822.009 676.788 822.033 677.882 822.13 678.774C822.227 679.763 822.398 680.436 822.641 680.793C823.208 681.603 823.978 682.146 824.951 682.422C825.924 682.681 826.889 682.641 827.845 682.3C828.818 681.96 829.572 681.376 830.107 680.549C830.983 679.252 831.445 677.477 831.493 675.223C831.51 674.413 831.485 673.343 831.42 672.013C831.323 670.295 831.266 669.224 831.25 668.803C831.25 668.462 831.364 668.171 831.591 667.927C831.818 667.684 832.101 667.563 832.442 667.563C832.782 667.563 833.074 667.676 833.317 667.903C833.561 668.13 833.682 668.414 833.682 668.754C833.698 669.143 833.747 670.181 833.828 671.867C833.909 673.262 833.942 674.405 833.925 675.296C833.861 678.004 833.269 680.209 832.15 681.911C831.534 682.836 830.707 683.565 829.669 684.1C828.648 684.635 827.594 684.935 826.508 685C825.421 685.065 824.343 684.862 823.273 684.392C822.203 683.906 821.328 683.16 820.647 682.155ZM838.459 685C838.135 685 837.851 684.895 837.608 684.684C837.365 684.457 837.243 684.157 837.243 683.784C837.243 682.503 837.235 681.401 837.219 680.476C837.186 677.72 837.17 675.329 837.17 673.302C837.17 672.929 837.284 672.637 837.511 672.427C837.738 672.216 838.013 672.11 838.338 672.11C838.678 672.11 838.97 672.224 839.213 672.451C839.472 672.662 839.602 672.962 839.602 673.351V674.105C840.607 672.791 841.929 672.135 843.566 672.135C844.977 672.135 846.055 672.629 846.801 673.618C847.563 674.607 847.944 675.937 847.944 677.607C847.944 679.455 847.92 680.671 847.871 681.255L847.749 682.884L847.676 683.93C847.644 684.254 847.514 684.514 847.287 684.708C847.06 684.903 846.793 685 846.485 685C846.16 685 845.877 684.895 845.634 684.684C845.39 684.457 845.269 684.157 845.269 683.784C845.269 683.525 845.325 682.625 845.439 681.084C845.52 680.031 845.561 679.204 845.561 678.604C845.561 677.226 845.366 676.212 844.977 675.564C844.588 674.899 843.988 674.567 843.177 674.567C842.594 674.567 841.986 674.745 841.353 675.102C840.737 675.458 840.153 675.912 839.602 676.464L839.651 679.917L839.675 683.784C839.675 684.157 839.554 684.457 839.31 684.684C839.067 684.895 838.783 685 838.459 685ZM851.773 679.406C851.433 679.423 851.149 679.342 850.922 679.163C850.695 678.969 850.565 678.709 850.533 678.385C850.517 678.044 850.606 677.761 850.8 677.534C850.995 677.307 851.254 677.177 851.579 677.145C852.13 677.112 852.892 677.08 853.865 677.047C854.838 677.015 855.47 676.991 855.762 676.974C856.07 676.958 856.345 677.055 856.589 677.266C856.848 677.461 856.986 677.728 857.002 678.069C857.018 678.393 856.913 678.669 856.686 678.896C856.459 679.106 856.183 679.22 855.859 679.236C855.535 679.252 854.91 679.277 853.986 679.309C853.062 679.342 852.324 679.374 851.773 679.406ZM785.978 714.195C785.086 714.195 784.211 714.081 783.351 713.854C782.492 713.627 781.746 713.311 781.114 712.906C780.401 712.452 779.752 711.811 779.168 710.984C778.601 710.157 778.155 709.258 777.831 708.285C777.507 707.296 777.344 706.347 777.344 705.439C777.344 704.223 777.604 703.04 778.123 701.889C778.641 700.737 779.371 699.692 780.311 698.751C781.025 698.038 781.827 697.487 782.719 697.098C783.773 696.66 784.835 696.441 785.905 696.441C786.829 696.441 787.753 696.619 788.678 696.976C789.277 697.203 789.788 697.495 790.21 697.852C790.631 698.192 791.093 698.646 791.596 699.213L792.326 700.113C792.52 700.356 792.617 700.608 792.617 700.867C792.617 701.191 792.488 701.475 792.228 701.718C791.969 701.962 791.669 702.083 791.328 702.083C790.988 702.083 790.688 701.929 790.429 701.621L789.529 700.527C789.302 700.284 789.034 700.048 788.726 699.821C788.418 699.578 788.11 699.392 787.802 699.262C787.105 698.97 786.408 698.849 785.71 698.897C784.235 699.027 782.995 699.57 781.99 700.527C780.514 701.953 779.776 703.591 779.776 705.439C779.776 706.428 780.036 707.466 780.555 708.552C781.09 709.622 781.714 710.393 782.427 710.863C782.865 711.138 783.392 711.357 784.008 711.519C784.624 711.681 785.257 711.763 785.905 711.763C787.867 711.763 789.148 711.219 789.748 710.133C789.861 709.939 789.999 709.566 790.161 709.014L790.404 708.236C790.502 707.977 790.647 707.774 790.842 707.628C791.053 707.482 791.272 707.409 791.499 707.409C791.823 707.409 792.115 707.523 792.374 707.75C792.634 707.977 792.763 708.269 792.763 708.625C792.763 708.771 792.739 708.917 792.69 709.063L792.52 709.574C792.244 710.417 792.034 710.992 791.888 711.3C791.385 712.176 790.68 712.849 789.772 713.319C788.864 713.789 787.826 714.073 786.659 714.17C786.513 714.186 786.286 714.195 785.978 714.195ZM801.736 713.83C799.596 714.349 797.885 713.919 796.604 712.541C795.583 711.487 794.951 710.133 794.707 708.479C794.529 707.182 794.683 705.95 795.169 704.783C795.753 703.291 796.677 702.189 797.942 701.475C798.201 701.329 798.526 701.224 798.915 701.159C798.931 701.159 799.044 701.151 799.255 701.135C799.336 701.119 799.401 701.102 799.45 701.086C799.693 701.037 799.936 701.062 800.179 701.159C800.244 701.159 800.398 701.167 800.641 701.183C800.885 701.183 801.047 701.191 801.128 701.208C801.209 701.208 801.347 701.224 801.541 701.256C801.752 701.273 801.922 701.297 802.052 701.329L802.514 701.5C802.709 701.564 802.895 701.645 803.073 701.743C803.252 701.84 803.446 701.953 803.657 702.083C804.711 702.797 805.441 703.802 805.846 705.099C806.251 706.38 806.357 707.417 806.162 708.212C806.016 709.087 805.757 709.906 805.384 710.668C805.011 711.414 804.492 712.079 803.827 712.662C803.179 713.246 802.482 713.635 801.736 713.83ZM800.982 711.3C801.679 711.203 802.271 710.847 802.757 710.23C803.26 709.598 803.584 708.933 803.73 708.236C803.892 707.539 803.835 706.777 803.56 705.95C803.3 705.107 802.879 704.499 802.295 704.126C802.117 703.996 801.971 703.907 801.857 703.859C801.744 703.794 801.606 703.745 801.444 703.713C801.298 703.664 801.176 703.64 801.079 703.64C800.998 703.64 800.812 703.632 800.52 703.615C800.228 703.599 799.969 703.583 799.742 703.567C799.693 703.567 799.636 703.559 799.571 703.542C799.393 703.559 799.296 703.567 799.28 703.567L799.109 703.615C798.396 704.004 797.845 704.629 797.456 705.488C797.083 706.331 796.977 707.207 797.139 708.115C797.318 709.217 797.715 710.052 798.331 710.62C798.996 711.236 799.879 711.463 800.982 711.3ZM811.254 712.833C811.237 713.173 811.108 713.457 810.865 713.684C810.621 713.911 810.33 714.016 809.989 714C809.649 713.984 809.365 713.854 809.138 713.611C808.911 713.368 808.805 713.076 808.822 712.735C808.887 710.579 808.919 708.941 808.919 707.823C808.919 706.704 808.903 705.034 808.87 702.813C808.838 700.592 808.822 698.922 808.822 697.803C808.822 697.462 808.935 697.179 809.162 696.952C809.405 696.708 809.697 696.587 810.038 696.587C810.378 696.587 810.662 696.708 810.889 696.952C811.132 697.179 811.254 697.462 811.254 697.803C811.254 698.922 811.27 700.511 811.302 702.57C811.335 704.629 811.343 706.501 811.327 708.188C811.327 709.857 811.302 711.406 811.254 712.833ZM816.669 712.833C816.652 713.173 816.523 713.457 816.28 713.684C816.036 713.911 815.745 714.016 815.404 714C815.064 713.984 814.78 713.854 814.553 713.611C814.326 713.368 814.22 713.076 814.237 712.735C814.302 710.579 814.334 708.941 814.334 707.823C814.334 706.704 814.318 705.034 814.285 702.813C814.253 700.592 814.237 698.922 814.237 697.803C814.237 697.462 814.35 697.179 814.577 696.952C814.82 696.708 815.112 696.587 815.453 696.587C815.793 696.587 816.077 696.708 816.304 696.952C816.547 697.179 816.669 697.462 816.669 697.803C816.669 698.922 816.685 700.511 816.717 702.57C816.75 704.629 816.758 706.501 816.742 708.188C816.742 709.857 816.717 711.406 816.669 712.833ZM825.614 714.122C824.414 714.041 823.369 713.797 822.477 713.392C821.585 712.987 820.904 712.476 820.434 711.86C819.964 711.244 819.623 710.676 819.412 710.157C819.202 709.639 819.072 709.128 819.023 708.625C818.975 708.106 818.999 707.442 819.096 706.631C819.21 705.95 819.445 705.277 819.802 704.612C820.175 703.948 820.661 703.356 821.261 702.837C821.877 702.302 822.615 701.897 823.474 701.621C824.333 701.329 825.249 701.24 826.222 701.354C827.162 701.467 827.965 701.727 828.63 702.132C829.295 702.521 829.862 703.024 830.332 703.64C830.738 704.159 830.981 704.548 831.062 704.807C831.159 705.066 831.24 705.31 831.305 705.537C831.386 705.764 831.451 705.958 831.5 706.12C831.548 706.282 831.589 706.453 831.621 706.631C831.67 706.793 831.702 706.988 831.718 707.215C831.735 707.523 831.678 707.807 831.548 708.066C831.418 708.325 831.224 708.528 830.964 708.674C830.754 708.755 830.527 708.796 830.284 708.796L826.125 708.868C823.206 708.885 821.747 708.917 821.747 708.966H821.674C821.885 709.793 822.323 710.441 822.988 710.911C823.668 711.382 824.593 711.657 825.76 711.738C826.392 711.771 826.919 711.738 827.341 711.641C827.811 711.511 828.151 711.398 828.362 711.3C828.573 711.187 828.832 711.041 829.14 710.863C829.449 710.749 829.757 710.765 830.065 710.911C830.373 711.057 830.583 711.284 830.697 711.592C830.81 711.9 830.794 712.2 830.648 712.492C830.519 712.784 830.308 713.011 830.016 713.173C829.757 713.319 829.489 713.449 829.213 713.562C828.938 713.66 828.532 713.781 827.997 713.927C827.462 714.073 826.668 714.138 825.614 714.122ZM821.723 706.582C822.663 706.534 825.103 706.485 829.043 706.436C828.897 705.95 828.662 705.488 828.338 705.05C827.689 704.304 826.887 703.875 825.93 703.761C824.925 703.632 824.041 703.85 823.279 704.418C822.517 704.969 821.999 705.691 821.723 706.582ZM839.738 714.049C838.814 714.065 837.906 713.903 837.015 713.562C836.139 713.222 835.418 712.727 834.85 712.079C834.266 711.398 833.877 710.587 833.683 709.647C833.504 708.69 833.496 707.782 833.658 706.923C833.837 706.064 834.129 705.237 834.534 704.442C834.858 703.842 835.247 703.307 835.701 702.837C836.155 702.351 836.682 701.945 837.282 701.621C837.898 701.281 838.547 701.102 839.228 701.086C839.925 701.054 840.671 701.2 841.465 701.524C841.887 701.718 842.316 702.026 842.754 702.448L843.532 703.226C843.792 703.437 843.938 703.713 843.97 704.053C844.003 704.394 843.905 704.694 843.678 704.953C843.468 705.196 843.192 705.334 842.851 705.366C842.511 705.399 842.219 705.302 841.976 705.075C841.83 704.961 841.66 704.807 841.465 704.612L841.052 704.199C840.825 703.972 840.638 703.826 840.492 703.761C839.763 703.437 839.066 703.445 838.401 703.786C837.736 704.11 837.169 704.71 836.698 705.585C836.212 706.493 835.969 707.401 835.969 708.309C835.985 709.217 836.228 709.939 836.698 710.474C836.99 710.814 837.412 711.09 837.963 711.3C838.514 711.511 839.098 711.617 839.714 711.617C840.963 711.584 841.765 711.138 842.122 710.279L842.098 710.157V709.452C842.114 709.112 842.243 708.836 842.487 708.625C842.746 708.398 843.046 708.293 843.386 708.309C843.727 708.325 844.003 708.463 844.213 708.723C844.44 708.966 844.546 709.258 844.53 709.598V710.133C844.546 710.538 844.489 710.895 844.359 711.203C843.986 712.144 843.37 712.849 842.511 713.319C841.668 713.789 840.744 714.032 839.738 714.049ZM851.004 713.927C850.907 713.895 850.704 713.846 850.396 713.781C850.104 713.716 849.845 713.643 849.618 713.562C849.407 713.481 849.156 713.368 848.864 713.222C848.588 713.06 848.337 712.849 848.11 712.589C847.883 712.314 847.689 711.99 847.526 711.617C847.348 711.179 847.235 710.32 847.186 709.039C847.137 708.05 847.129 706.777 847.162 705.22C847.162 704.929 847.17 704.442 847.186 703.761L846.991 703.786C846.651 703.818 846.351 703.729 846.092 703.518C845.832 703.307 845.678 703.04 845.629 702.716C845.597 702.375 845.686 702.075 845.897 701.816C846.108 701.556 846.375 701.402 846.7 701.354L847.259 701.305C847.275 700.446 847.299 699.578 847.332 698.703C847.348 698.362 847.478 698.079 847.721 697.852C847.964 697.625 848.256 697.519 848.596 697.535C848.937 697.552 849.221 697.681 849.448 697.924C849.675 698.168 849.78 698.46 849.764 698.8L849.691 701.11L850.493 701.062C850.834 701.046 851.126 701.143 851.369 701.354C851.628 701.564 851.766 701.84 851.782 702.18C851.815 702.521 851.726 702.821 851.515 703.08C851.304 703.324 851.028 703.461 850.688 703.494L849.618 703.542C849.602 704.321 849.594 704.888 849.594 705.245C849.561 706.769 849.569 708.009 849.618 708.966C849.65 709.939 849.699 710.498 849.764 710.644C849.829 710.79 849.877 710.895 849.91 710.96C849.942 711.009 849.999 711.065 850.08 711.13C850.177 711.179 850.275 711.211 850.372 711.228C850.469 711.244 850.647 711.292 850.907 711.373C851.183 711.438 851.474 711.527 851.782 711.641C852.09 711.738 852.317 711.941 852.463 712.249C852.625 712.541 852.65 712.849 852.536 713.173C852.439 713.481 852.236 713.716 851.928 713.878C851.636 714.024 851.328 714.041 851.004 713.927ZM860.948 713.611C860.364 713.838 859.7 713.968 858.954 714C858.224 714.032 857.543 713.951 856.911 713.757C856.279 713.546 855.719 713.23 855.233 712.808C854.39 712.111 853.847 711.244 853.603 710.206C853.36 709.168 853.352 708.236 853.579 707.409C853.806 706.582 854.147 705.78 854.6 705.002C855.071 704.207 855.573 703.542 856.108 703.007C856.66 702.456 857.292 701.994 858.005 701.621C858.719 701.248 859.464 701.07 860.243 701.086C861.021 701.086 861.84 701.297 862.699 701.718C862.829 701.783 862.967 701.881 863.112 702.01C863.275 702.14 863.412 702.253 863.526 702.351L863.842 702.667C863.939 702.764 863.988 702.821 863.988 702.837C864.247 703.064 864.385 703.356 864.401 703.713C864.612 704.685 864.75 705.707 864.815 706.777C864.88 707.847 864.896 708.852 864.864 709.793C864.847 710.733 864.864 711.73 864.912 712.784C864.928 713.108 864.823 713.392 864.596 713.635C864.369 713.878 864.085 714.008 863.745 714.024C863.404 714.041 863.112 713.935 862.869 713.708C862.626 713.481 862.496 713.206 862.48 712.881V712.516C861.994 713.019 861.483 713.384 860.948 713.611ZM859.854 711.422C860.097 711.357 860.291 711.292 860.437 711.228C860.583 711.163 860.762 711.065 860.972 710.936C861.199 710.806 861.434 710.644 861.678 710.449C861.921 710.255 862.14 710.012 862.334 709.72C862.367 709.687 862.407 709.655 862.456 709.622C862.456 707.434 862.318 705.674 862.042 704.345C861.994 704.28 861.937 704.223 861.872 704.175C861.824 704.11 861.783 704.061 861.751 704.029C861.734 703.996 861.702 703.972 861.653 703.956C861.621 703.923 861.58 703.891 861.532 703.859C860.753 703.437 859.935 703.429 859.075 703.834C858.216 704.223 857.462 704.961 856.814 706.047C856.165 707.15 855.841 708.115 855.841 708.941C855.857 709.752 856.173 710.425 856.789 710.96C857.162 711.268 857.624 711.463 858.176 711.544C858.727 711.625 859.286 711.584 859.854 711.422ZM869.129 714C868.789 713.984 868.505 713.854 868.278 713.611C868.051 713.351 867.946 713.06 867.962 712.735C867.994 712.006 868.019 711.422 868.035 710.984C868.051 710.417 868.067 709.809 868.084 709.16C868.1 708.496 868.108 707.936 868.108 707.482C868.124 707.028 868.124 706.485 868.108 705.853C868.108 705.204 868.108 704.71 868.108 704.369C868.108 704.013 868.1 703.396 868.084 702.521C868.084 701.629 868.076 701.07 868.059 700.843C868.059 700.6 868.051 700.081 868.035 699.286C868.019 698.476 868.011 697.989 868.011 697.827C868.011 697.487 868.124 697.195 868.351 696.952C868.578 696.708 868.862 696.587 869.202 696.587C869.543 696.587 869.835 696.7 870.078 696.927C870.321 697.154 870.443 697.438 870.443 697.779C870.491 699.951 870.516 701.313 870.516 701.864C870.759 701.702 871.01 701.572 871.27 701.475C872.372 701.07 873.369 700.964 874.261 701.159C875.153 701.337 875.955 701.759 876.669 702.424C877.285 703.007 877.787 703.721 878.176 704.564C878.582 705.407 878.841 706.169 878.955 706.85C879.23 708.909 878.874 710.636 877.885 712.03C877.317 712.841 876.571 713.416 875.647 713.757C874.739 714.113 873.693 714.195 872.51 714C871.715 713.87 870.986 713.611 870.321 713.222C870.224 713.465 870.062 713.66 869.835 713.805C869.624 713.951 869.389 714.016 869.129 714ZM872.899 711.617C874.277 711.827 875.282 711.495 875.915 710.62C876.531 709.744 876.742 708.593 876.547 707.166C876.352 705.966 875.842 704.977 875.015 704.199C874.204 703.453 873.248 703.291 872.145 703.713C872.032 703.761 871.926 703.818 871.829 703.883C871.748 703.932 871.659 704.013 871.561 704.126L871.27 704.369C871.205 704.45 871.091 704.588 870.929 704.783C870.767 704.961 870.637 705.099 870.54 705.196C870.556 706.882 870.54 708.528 870.491 710.133L870.516 710.157C871.067 710.952 871.861 711.438 872.899 711.617ZM883.976 712.833C883.96 713.173 883.83 713.457 883.587 713.684C883.344 713.911 883.052 714.016 882.712 714C882.371 713.984 882.087 713.854 881.86 713.611C881.633 713.368 881.528 713.076 881.544 712.735C881.609 710.579 881.641 708.941 881.641 707.823C881.641 706.704 881.625 705.034 881.593 702.813C881.56 700.592 881.544 698.922 881.544 697.803C881.544 697.462 881.658 697.179 881.885 696.952C882.128 696.708 882.42 696.587 882.76 696.587C883.101 696.587 883.384 696.708 883.611 696.952C883.855 697.179 883.976 697.462 883.976 697.803C883.976 698.922 883.992 700.511 884.025 702.57C884.057 704.629 884.065 706.501 884.049 708.188C884.049 709.857 884.025 711.406 883.976 712.833ZM892.922 714.122C891.722 714.041 890.676 713.797 889.784 713.392C888.893 712.987 888.212 712.476 887.741 711.86C887.271 711.244 886.931 710.676 886.72 710.157C886.509 709.639 886.38 709.128 886.331 708.625C886.282 708.106 886.307 707.442 886.404 706.631C886.517 705.95 886.752 705.277 887.109 704.612C887.482 703.948 887.968 703.356 888.568 702.837C889.184 702.302 889.922 701.897 890.781 701.621C891.641 701.329 892.557 701.24 893.53 701.354C894.47 701.467 895.273 701.727 895.937 702.132C896.602 702.521 897.169 703.024 897.64 703.64C898.045 704.159 898.288 704.548 898.369 704.807C898.467 705.066 898.548 705.31 898.612 705.537C898.694 705.764 898.758 705.958 898.807 706.12C898.856 706.282 898.896 706.453 898.929 706.631C898.977 706.793 899.01 706.988 899.026 707.215C899.042 707.523 898.985 707.807 898.856 708.066C898.726 708.325 898.531 708.528 898.272 708.674C898.061 708.755 897.834 708.796 897.591 708.796L893.432 708.868C890.514 708.885 889.055 708.917 889.055 708.966H888.982C889.193 709.793 889.63 710.441 890.295 710.911C890.976 711.382 891.9 711.657 893.068 711.738C893.7 711.771 894.227 711.738 894.648 711.641C895.118 711.511 895.459 711.398 895.67 711.3C895.881 711.187 896.14 711.041 896.448 710.863C896.756 710.749 897.064 710.765 897.372 710.911C897.68 711.057 897.891 711.284 898.004 711.592C898.118 711.9 898.102 712.2 897.956 712.492C897.826 712.784 897.615 713.011 897.324 713.173C897.064 713.319 896.797 713.449 896.521 713.562C896.245 713.66 895.84 713.781 895.305 713.927C894.77 714.073 893.975 714.138 892.922 714.122ZM889.03 706.582C889.971 706.534 892.411 706.485 896.351 706.436C896.205 705.95 895.97 705.488 895.645 705.05C894.997 704.304 894.194 703.875 893.238 703.761C892.233 703.632 891.349 703.85 890.587 704.418C889.825 704.969 889.306 705.691 889.03 706.582Z" fill="#D9D9D9"/>
<path d="M320.051 223.064C320.051 262.269 288.269 294.051 249.064 294.051C209.859 294.051 178.078 262.269 178.078 223.064C178.078 183.859 209.859 152.078 249.064 152.078C288.269 152.078 320.051 183.859 320.051 223.064Z" fill="#546973" stroke="#D9D9D9" stroke-width="4.15531"/>
<path d="M223.026 231.053C222.763 231.07 222.518 231.009 222.29 230.868C222.009 230.781 221.781 230.623 221.605 230.395C221.447 230.149 221.369 229.877 221.369 229.579C221.369 229.017 221.412 226.272 221.5 221.342C221.518 220.535 221.491 219.245 221.421 217.473C221.351 215.736 221.342 214.385 221.395 213.42C221.412 213.052 221.553 212.745 221.816 212.499C222.097 212.254 222.412 212.14 222.763 212.157H222.869C223.026 212.069 223.193 212.017 223.369 211.999C224.176 211.929 224.816 211.885 225.29 211.868C225.763 211.832 226.43 211.815 227.29 211.815C228.15 211.815 228.886 211.876 229.5 211.999C230.115 212.104 230.79 212.289 231.527 212.552C232.281 212.815 232.948 213.157 233.527 213.578C234.755 214.473 235.65 215.622 236.211 217.026C236.79 218.412 237.053 219.877 237.001 221.421C236.948 222.912 236.615 224.351 236.001 225.737C235.369 227.105 234.501 228.228 233.395 229.105C232.08 230.158 230.299 230.772 228.053 230.947C227.386 231 226.509 231.026 225.421 231.026C224.246 231.026 223.448 231.035 223.026 231.053ZM225.421 228.395C226.456 228.395 227.264 228.368 227.842 228.316C229.439 228.193 230.694 227.772 231.606 227.052C232.378 226.438 232.992 225.623 233.448 224.605C233.922 223.57 234.176 222.473 234.211 221.315C234.264 220.157 234.088 219.087 233.685 218.105C233.264 217.105 232.65 216.315 231.843 215.736C231.194 215.262 230.422 214.92 229.527 214.71C228.614 214.499 227.728 214.412 226.869 214.447C226.009 214.464 225.053 214.517 224 214.605C223.983 215.113 224 216.034 224.053 217.368C224.123 219.28 224.149 220.622 224.132 221.394C224.132 221.921 224.123 222.658 224.105 223.605C224.088 224.535 224.07 225.394 224.053 226.184C224.035 226.974 224.027 227.71 224.027 228.395H225.421ZM241.278 231C240.927 231 240.62 230.886 240.357 230.658C240.093 230.412 239.962 230.088 239.962 229.684L239.909 224.315C239.892 223.105 239.883 221.596 239.883 219.789V218.236C239.883 217.833 240.006 217.517 240.251 217.289C240.497 217.061 240.795 216.947 241.146 216.947C241.515 216.947 241.83 217.07 242.094 217.315C242.374 217.543 242.515 217.868 242.515 218.289V219.078C242.708 218.657 243.067 218.298 243.594 217.999C244.313 217.561 245.102 217.341 245.962 217.341C246.611 217.341 247.111 217.447 247.462 217.657C247.813 217.868 247.989 218.245 247.989 218.789C247.989 219.14 247.883 219.438 247.673 219.684C247.462 219.912 247.155 220.026 246.752 220.026C245.278 220.026 244.26 220.228 243.699 220.631C243.383 220.842 243.102 221.096 242.857 221.394C242.629 221.693 242.515 221.982 242.515 222.263L242.567 225.552L242.594 229.684C242.594 230.088 242.462 230.412 242.199 230.658C241.936 230.886 241.629 231 241.278 231ZM256.194 230.579C255.562 230.825 254.843 230.965 254.036 231C253.247 231.035 252.51 230.947 251.825 230.737C251.141 230.509 250.536 230.167 250.01 229.71C249.097 228.956 248.51 228.017 248.246 226.895C247.983 225.772 247.974 224.763 248.22 223.868C248.466 222.973 248.834 222.105 249.325 221.263C249.834 220.403 250.378 219.684 250.957 219.105C251.554 218.508 252.238 218.008 253.01 217.605C253.782 217.201 254.589 217.008 255.431 217.026C256.273 217.026 257.159 217.254 258.089 217.71C258.229 217.78 258.378 217.885 258.536 218.026C258.712 218.166 258.861 218.289 258.984 218.394L259.326 218.736C259.431 218.842 259.484 218.903 259.484 218.921C259.764 219.166 259.914 219.482 259.931 219.868C260.159 220.921 260.308 222.026 260.378 223.184C260.449 224.342 260.466 225.43 260.431 226.447C260.414 227.465 260.431 228.544 260.484 229.684C260.501 230.035 260.387 230.342 260.142 230.605C259.896 230.868 259.589 231.009 259.221 231.026C258.852 231.044 258.536 230.93 258.273 230.684C258.01 230.439 257.87 230.14 257.852 229.789V229.395C257.326 229.939 256.773 230.333 256.194 230.579ZM255.01 228.21C255.273 228.14 255.484 228.07 255.641 228C255.799 227.93 255.992 227.824 256.22 227.684C256.466 227.544 256.72 227.368 256.984 227.158C257.247 226.947 257.484 226.684 257.694 226.368C257.729 226.333 257.773 226.298 257.826 226.263C257.826 223.894 257.677 221.991 257.378 220.552C257.326 220.482 257.264 220.421 257.194 220.368C257.141 220.298 257.098 220.245 257.063 220.21C257.045 220.175 257.01 220.149 256.957 220.131C256.922 220.096 256.878 220.061 256.826 220.026C255.984 219.57 255.098 219.561 254.168 220C253.238 220.421 252.422 221.219 251.72 222.394C251.018 223.587 250.668 224.631 250.668 225.526C250.685 226.403 251.027 227.131 251.694 227.71C252.097 228.044 252.597 228.254 253.194 228.342C253.79 228.43 254.396 228.386 255.01 228.21ZM265.574 231C265.258 231 264.986 230.904 264.758 230.711C264.53 230.518 264.398 230.237 264.363 229.868C264.082 227.57 263.924 224.938 263.889 221.973L263.863 220H263.652C263.214 220 262.872 219.877 262.626 219.631C262.398 219.368 262.284 219.043 262.284 218.657C262.284 218.306 262.389 217.999 262.6 217.736C262.81 217.456 263.109 217.315 263.495 217.315H263.968C263.968 216.28 264.117 215.289 264.416 214.341C264.731 213.376 265.188 212.727 265.784 212.394C266.381 212.078 266.942 211.92 267.468 211.92C268.205 211.92 268.793 212.052 269.232 212.315C269.67 212.578 269.89 212.955 269.89 213.447C269.89 213.85 269.793 214.175 269.6 214.42C269.407 214.666 269.135 214.789 268.784 214.789C268.679 214.789 268.574 214.78 268.468 214.762C268.381 214.745 268.293 214.727 268.205 214.71C267.96 214.64 267.705 214.605 267.442 214.605C267.144 214.605 266.942 214.85 266.837 215.341C266.732 215.815 266.653 216.473 266.6 217.315H267.732C268.135 217.315 268.451 217.447 268.679 217.71C268.925 217.973 269.047 218.28 269.047 218.631C269.047 218.982 268.925 219.289 268.679 219.552C268.451 219.815 268.135 219.947 267.732 219.947H266.495L266.521 221.947C266.679 225.842 266.819 228.324 266.942 229.395C266.995 229.974 266.881 230.386 266.6 230.632C266.319 230.877 265.977 231 265.574 231ZM276.274 230.921C276.169 230.886 275.949 230.833 275.616 230.763C275.3 230.693 275.019 230.614 274.774 230.526C274.546 230.439 274.274 230.316 273.958 230.158C273.66 229.982 273.388 229.754 273.142 229.474C272.897 229.175 272.686 228.824 272.511 228.421C272.318 227.947 272.195 227.017 272.142 225.631C272.09 224.561 272.081 223.184 272.116 221.5C272.116 221.184 272.125 220.657 272.142 219.921L271.932 219.947C271.563 219.982 271.239 219.885 270.958 219.657C270.677 219.429 270.511 219.14 270.458 218.789C270.423 218.42 270.519 218.096 270.747 217.815C270.975 217.534 271.265 217.368 271.616 217.315L272.221 217.263C272.239 216.333 272.265 215.394 272.3 214.447C272.318 214.078 272.458 213.771 272.721 213.526C272.984 213.28 273.3 213.166 273.669 213.183C274.037 213.201 274.344 213.341 274.59 213.604C274.835 213.868 274.949 214.183 274.932 214.552L274.853 217.052L275.721 216.999C276.09 216.982 276.406 217.087 276.669 217.315C276.949 217.543 277.099 217.842 277.116 218.21C277.151 218.578 277.055 218.903 276.827 219.184C276.598 219.447 276.3 219.596 275.932 219.631L274.774 219.684C274.756 220.526 274.748 221.14 274.748 221.526C274.712 223.175 274.721 224.517 274.774 225.552C274.809 226.605 274.862 227.21 274.932 227.368C275.002 227.526 275.055 227.64 275.09 227.71C275.125 227.763 275.186 227.824 275.274 227.895C275.379 227.947 275.484 227.982 275.59 228C275.695 228.017 275.888 228.07 276.169 228.158C276.467 228.228 276.783 228.324 277.116 228.447C277.449 228.553 277.695 228.772 277.853 229.105C278.028 229.421 278.055 229.754 277.932 230.105C277.827 230.439 277.607 230.693 277.274 230.868C276.958 231.026 276.625 231.044 276.274 230.921Z" fill="#D9D9D9"/>
<circle cx="249" cy="376" r="20" transform="rotate(-90 249 376)" fill="#546973"/>
<path d="M250.061 304.939C249.475 304.354 248.525 304.354 247.939 304.939L238.393 314.485C237.808 315.071 237.808 316.021 238.393 316.607C238.979 317.192 239.929 317.192 240.515 316.607L249 308.121L257.485 316.607C258.071 317.192 259.021 317.192 259.607 316.607C260.192 316.021 260.192 315.071 259.607 314.485L250.061 304.939ZM250.5 357L250.5 306L247.5 306L247.5 357L250.5 357Z" fill="#899FA9"/>
<path d="M351.553 261.737C351.553 261.053 351.562 259.474 351.579 257C351.614 254.526 351.614 252.5 351.579 250.921C351.562 249.324 351.491 247.701 351.369 246.052C351.369 245.947 351.377 245.841 351.395 245.736C351.377 245.666 351.369 245.604 351.369 245.552C351.369 245.183 351.491 244.868 351.737 244.604C351.983 244.341 352.29 244.21 352.658 244.21C357.535 244.122 361.106 244.122 363.369 244.21C363.737 244.227 364.045 244.368 364.29 244.631C364.536 244.894 364.65 245.21 364.632 245.578C364.615 245.947 364.474 246.254 364.211 246.499C363.948 246.745 363.632 246.859 363.264 246.841C361.053 246.754 357.983 246.745 354.053 246.815C354.158 248.464 354.22 250.28 354.237 252.263C355.395 252.263 358 252.236 362.053 252.184C362.422 252.184 362.737 252.315 363.001 252.578C363.264 252.824 363.395 253.131 363.395 253.5C363.395 253.85 363.264 254.158 363.001 254.421C362.755 254.684 362.457 254.815 362.106 254.815C358.035 254.868 355.413 254.894 354.237 254.894C354.237 255.473 354.228 256.552 354.211 258.131C354.193 259.693 354.184 260.895 354.184 261.737C354.184 262.105 354.053 262.421 353.79 262.684C353.544 262.93 353.237 263.053 352.869 263.053C352.5 263.053 352.184 262.93 351.921 262.684C351.676 262.421 351.553 262.105 351.553 261.737ZM366.414 261.737C366.379 260.421 366.379 258.403 366.414 255.684C366.467 252.964 366.493 251.184 366.493 250.342C366.493 249.973 366.616 249.666 366.861 249.42C367.125 249.157 367.44 249.026 367.809 249.026C368.177 249.026 368.484 249.157 368.73 249.42C368.993 249.666 369.125 249.973 369.125 250.342C369.125 251.184 369.098 252.956 369.046 255.658C369.011 258.359 369.011 260.368 369.046 261.684C369.046 262.053 368.923 262.368 368.677 262.632C368.432 262.895 368.125 263.026 367.756 263.026C367.388 263.026 367.072 262.904 366.809 262.658C366.546 262.412 366.414 262.105 366.414 261.737ZM368.861 244.473C369.16 244.771 369.309 245.14 369.309 245.578C369.309 246.017 369.16 246.385 368.861 246.683C368.563 246.982 368.195 247.131 367.756 247.131C367.318 247.131 366.949 246.982 366.651 246.683C366.353 246.385 366.203 246.017 366.203 245.578C366.203 245.14 366.353 244.771 366.651 244.473C366.949 244.175 367.318 244.025 367.756 244.025C368.212 244.008 368.581 244.157 368.861 244.473ZM373.951 263C373.6 263 373.293 262.886 373.029 262.658C372.766 262.412 372.635 262.088 372.635 261.684C372.635 260.298 372.626 259.105 372.608 258.105C372.573 255.122 372.556 252.535 372.556 250.342C372.556 249.938 372.679 249.622 372.924 249.394C373.17 249.166 373.468 249.052 373.819 249.052C374.187 249.052 374.503 249.175 374.766 249.42C375.047 249.649 375.187 249.973 375.187 250.394V251.21C376.275 249.789 377.705 249.078 379.477 249.078C381.003 249.078 382.17 249.613 382.977 250.684C383.802 251.754 384.214 253.193 384.214 255C384.214 257 384.188 258.316 384.135 258.947L384.004 260.71L383.925 261.842C383.89 262.193 383.749 262.474 383.504 262.684C383.258 262.895 382.968 263 382.635 263C382.284 263 381.977 262.886 381.714 262.658C381.451 262.412 381.319 262.088 381.319 261.684C381.319 261.403 381.381 260.43 381.503 258.763C381.591 257.623 381.635 256.728 381.635 256.079C381.635 254.587 381.425 253.491 381.003 252.789C380.582 252.07 379.933 251.71 379.056 251.71C378.424 251.71 377.766 251.903 377.082 252.289C376.416 252.675 375.784 253.166 375.187 253.763L375.24 257.5L375.266 261.684C375.266 262.088 375.135 262.412 374.872 262.658C374.608 262.886 374.301 263 373.951 263ZM394.727 262.579C394.095 262.825 393.376 262.965 392.569 263C391.779 263.035 391.042 262.947 390.358 262.737C389.674 262.509 389.068 262.167 388.542 261.71C387.63 260.956 387.042 260.017 386.779 258.895C386.516 257.772 386.507 256.763 386.752 255.868C386.998 254.973 387.367 254.105 387.858 253.263C388.367 252.403 388.91 251.684 389.489 251.105C390.086 250.508 390.77 250.008 391.542 249.605C392.314 249.201 393.121 249.008 393.963 249.026C394.805 249.026 395.691 249.254 396.621 249.71C396.762 249.78 396.911 249.885 397.069 250.026C397.244 250.166 397.393 250.289 397.516 250.394L397.858 250.736C397.964 250.842 398.016 250.903 398.016 250.921C398.297 251.166 398.446 251.482 398.464 251.868C398.692 252.921 398.841 254.026 398.911 255.184C398.981 256.342 398.999 257.43 398.964 258.447C398.946 259.465 398.964 260.544 399.016 261.684C399.034 262.035 398.92 262.342 398.674 262.605C398.428 262.868 398.121 263.009 397.753 263.026C397.385 263.044 397.069 262.93 396.806 262.684C396.542 262.439 396.402 262.14 396.385 261.789V261.395C395.858 261.939 395.306 262.333 394.727 262.579ZM393.542 260.21C393.805 260.14 394.016 260.07 394.174 260C394.332 259.93 394.525 259.824 394.753 259.684C394.998 259.544 395.253 259.368 395.516 259.158C395.779 258.947 396.016 258.684 396.227 258.368C396.262 258.333 396.306 258.298 396.358 258.263C396.358 255.894 396.209 253.991 395.911 252.552C395.858 252.482 395.797 252.421 395.727 252.368C395.674 252.298 395.63 252.245 395.595 252.21C395.577 252.175 395.542 252.149 395.49 252.131C395.455 252.096 395.411 252.061 395.358 252.026C394.516 251.57 393.63 251.561 392.7 252C391.77 252.421 390.954 253.219 390.253 254.394C389.551 255.587 389.2 256.631 389.2 257.526C389.218 258.403 389.56 259.131 390.226 259.71C390.63 260.044 391.13 260.254 391.726 260.342C392.323 260.43 392.928 260.386 393.542 260.21ZM404.817 261.737C404.799 262.105 404.659 262.412 404.396 262.658C404.132 262.904 403.817 263.018 403.448 263C403.08 262.982 402.773 262.842 402.527 262.579C402.281 262.316 402.167 262 402.185 261.632C402.255 259.298 402.29 257.526 402.29 256.315C402.29 255.105 402.273 253.298 402.238 250.894C402.202 248.491 402.185 246.683 402.185 245.473C402.185 245.104 402.308 244.797 402.553 244.552C402.817 244.289 403.132 244.157 403.501 244.157C403.869 244.157 404.176 244.289 404.422 244.552C404.685 244.797 404.817 245.104 404.817 245.473C404.817 246.683 404.834 248.403 404.869 250.631C404.904 252.859 404.913 254.886 404.896 256.71C404.896 258.517 404.869 260.193 404.817 261.737ZM408.202 261.737C408.167 260.421 408.167 258.403 408.202 255.684C408.255 252.964 408.281 251.184 408.281 250.342C408.281 249.973 408.404 249.666 408.65 249.42C408.913 249.157 409.229 249.026 409.597 249.026C409.966 249.026 410.273 249.157 410.518 249.42C410.782 249.666 410.913 249.973 410.913 250.342C410.913 251.184 410.887 252.956 410.834 255.658C410.799 258.359 410.799 260.368 410.834 261.684C410.834 262.053 410.711 262.368 410.466 262.632C410.22 262.895 409.913 263.026 409.545 263.026C409.176 263.026 408.86 262.904 408.597 262.658C408.334 262.412 408.202 262.105 408.202 261.737ZM410.65 244.473C410.948 244.771 411.097 245.14 411.097 245.578C411.097 246.017 410.948 246.385 410.65 246.683C410.352 246.982 409.983 247.131 409.545 247.131C409.106 247.131 408.738 246.982 408.439 246.683C408.141 246.385 407.992 246.017 407.992 245.578C407.992 245.14 408.141 244.771 408.439 244.473C408.738 244.175 409.106 244.025 409.545 244.025C410.001 244.008 410.369 244.157 410.65 244.473ZM418.818 263C417.467 263.018 416.397 263 415.607 262.947C415.099 262.912 414.686 262.86 414.37 262.789C414.142 262.737 413.941 262.675 413.765 262.605C413.379 262.412 413.107 262.132 412.949 261.763C412.844 261.465 412.844 261.158 412.949 260.842C412.984 260.737 413.028 260.649 413.081 260.579C413.116 260.509 413.169 260.43 413.239 260.342L413.528 259.974L414.344 259.131L415.555 257.921C416.993 256.43 418.195 255.14 419.16 254.052C419.915 253.105 420.45 252.315 420.766 251.684C420.099 251.666 419.476 251.657 418.897 251.657C416.581 251.71 415.099 251.701 414.449 251.631C414.099 251.578 413.809 251.412 413.581 251.131C413.353 250.85 413.256 250.535 413.291 250.184C413.344 249.815 413.511 249.517 413.792 249.289C414.072 249.061 414.397 248.964 414.765 248.999C415.327 249.07 416.327 249.096 417.765 249.078C419.222 249.043 420.362 249.034 421.187 249.052H422.318C422.353 249.07 422.388 249.078 422.423 249.078L422.581 249.131C422.774 249.184 422.941 249.28 423.081 249.42C423.555 249.877 423.748 250.482 423.66 251.236C423.608 251.675 423.45 252.175 423.187 252.736C422.801 253.543 422.152 254.438 421.239 255.421C420.222 256.754 418.958 258.202 417.45 259.763L416.844 260.368C417.353 260.386 418.002 260.386 418.792 260.368C419.704 260.351 420.774 260.316 422.002 260.263C423.266 260.21 423.967 260.184 424.108 260.184C424.476 260.184 424.783 260.316 425.029 260.579C425.292 260.824 425.424 261.131 425.424 261.5C425.424 261.868 425.292 262.184 425.029 262.447C424.783 262.693 424.476 262.816 424.108 262.816C423.967 262.816 423.266 262.842 422.002 262.895C420.757 262.947 419.695 262.982 418.818 263ZM433.026 263.132C431.728 263.044 430.596 262.781 429.631 262.342C428.666 261.903 427.93 261.351 427.421 260.684C426.912 260.017 426.544 259.403 426.316 258.842C426.087 258.28 425.947 257.728 425.894 257.184C425.842 256.623 425.868 255.903 425.973 255.026C426.096 254.289 426.351 253.561 426.737 252.842C427.14 252.122 427.666 251.482 428.316 250.921C428.982 250.342 429.781 249.903 430.71 249.605C431.64 249.289 432.632 249.192 433.684 249.315C434.702 249.438 435.57 249.719 436.29 250.157C437.009 250.578 437.623 251.122 438.132 251.789C438.57 252.35 438.834 252.771 438.921 253.052C439.027 253.333 439.114 253.596 439.185 253.842C439.272 254.087 439.342 254.298 439.395 254.473C439.448 254.649 439.492 254.833 439.527 255.026C439.579 255.201 439.614 255.412 439.632 255.658C439.649 255.991 439.588 256.298 439.448 256.579C439.307 256.859 439.097 257.079 438.816 257.237C438.588 257.324 438.342 257.368 438.079 257.368L433.579 257.447C430.421 257.465 428.842 257.5 428.842 257.552H428.763C428.991 258.447 429.465 259.149 430.184 259.658C430.921 260.167 431.921 260.465 433.184 260.553C433.868 260.588 434.439 260.553 434.895 260.447C435.404 260.307 435.772 260.184 436 260.079C436.228 259.956 436.509 259.798 436.842 259.605C437.176 259.482 437.509 259.5 437.842 259.658C438.176 259.816 438.404 260.061 438.527 260.395C438.649 260.728 438.632 261.053 438.474 261.368C438.334 261.684 438.106 261.93 437.79 262.105C437.509 262.263 437.22 262.403 436.921 262.526C436.623 262.632 436.184 262.763 435.605 262.921C435.026 263.079 434.167 263.149 433.026 263.132ZM428.816 254.973C429.833 254.921 432.474 254.868 436.737 254.815C436.579 254.289 436.325 253.789 435.974 253.315C435.272 252.508 434.404 252.043 433.368 251.921C432.281 251.78 431.325 252.017 430.5 252.631C429.675 253.228 429.114 254.008 428.816 254.973Z" fill="#D9D9D9"/>
<path d="M444.061 224.061C444.646 223.475 444.646 222.525 444.061 221.939L434.515 212.393C433.929 211.808 432.979 211.808 432.393 212.393C431.808 212.979 431.808 213.929 432.393 214.515L440.879 223L432.393 231.485C431.808 232.071 431.808 233.021 432.393 233.607C432.979 234.192 433.929 234.192 434.515 233.607L444.061 224.061ZM347 224.5L443 224.5V221.5L347 221.5V224.5Z" fill="#899FA9"/>
<path d="M673.495 261.763C673.495 261.588 673.433 259 673.311 254C673.24 250.543 673.293 247.736 673.469 245.578C673.504 245.21 673.653 244.911 673.916 244.683C674.197 244.455 674.521 244.35 674.89 244.368C675.065 244.385 675.232 244.438 675.39 244.525C677.442 244.104 679.293 244.008 680.943 244.236C683.837 244.64 685.715 245.955 686.574 248.184C686.908 249.254 687.031 250.131 686.943 250.815C686.873 251.482 686.671 252.087 686.338 252.631C686.022 253.157 685.609 253.587 685.101 253.921C684.609 254.254 684.109 254.526 683.601 254.736C683.092 254.929 682.548 255.079 681.969 255.184C680.179 255.552 678.188 255.614 675.995 255.368C676.083 258.737 676.127 260.868 676.127 261.763C676.127 262.132 675.995 262.447 675.732 262.711C675.486 262.956 675.179 263.079 674.811 263.079C674.442 263.079 674.126 262.956 673.863 262.711C673.618 262.447 673.495 262.132 673.495 261.763ZM675.942 252.763C676.048 252.745 676.162 252.736 676.284 252.736C678.197 252.964 679.916 252.921 681.443 252.605C683.25 252.236 684.215 251.535 684.337 250.499C684.373 250.254 684.294 249.798 684.101 249.131C683.627 247.868 682.46 247.105 680.6 246.841C679.267 246.666 677.741 246.745 676.021 247.078C675.934 248.622 675.907 250.517 675.942 252.763ZM695.44 262.579C694.808 262.825 694.089 262.965 693.282 263C692.492 263.035 691.755 262.947 691.071 262.737C690.387 262.509 689.782 262.167 689.255 261.71C688.343 260.956 687.755 260.017 687.492 258.895C687.229 257.772 687.22 256.763 687.466 255.868C687.711 254.973 688.08 254.105 688.571 253.263C689.08 252.403 689.624 251.684 690.203 251.105C690.799 250.508 691.483 250.008 692.255 249.605C693.027 249.201 693.834 249.008 694.677 249.026C695.519 249.026 696.405 249.254 697.335 249.71C697.475 249.78 697.624 249.885 697.782 250.026C697.957 250.166 698.106 250.289 698.229 250.394L698.571 250.736C698.677 250.842 698.729 250.903 698.729 250.921C699.01 251.166 699.159 251.482 699.177 251.868C699.405 252.921 699.554 254.026 699.624 255.184C699.694 256.342 699.712 257.43 699.677 258.447C699.659 259.465 699.677 260.544 699.729 261.684C699.747 262.035 699.633 262.342 699.387 262.605C699.142 262.868 698.835 263.009 698.466 263.026C698.098 263.044 697.782 262.93 697.519 262.684C697.256 262.439 697.115 262.14 697.098 261.789V261.395C696.571 261.939 696.019 262.333 695.44 262.579ZM694.255 260.21C694.519 260.14 694.729 260.07 694.887 260C695.045 259.93 695.238 259.824 695.466 259.684C695.712 259.544 695.966 259.368 696.229 259.158C696.492 258.947 696.729 258.684 696.94 258.368C696.975 258.333 697.019 258.298 697.071 258.263C697.071 255.894 696.922 253.991 696.624 252.552C696.571 252.482 696.51 252.421 696.44 252.368C696.387 252.298 696.343 252.245 696.308 252.21C696.291 252.175 696.256 252.149 696.203 252.131C696.168 252.096 696.124 252.061 696.071 252.026C695.229 251.57 694.343 251.561 693.413 252C692.483 252.421 691.668 253.219 690.966 254.394C690.264 255.587 689.913 256.631 689.913 257.526C689.931 258.403 690.273 259.131 690.94 259.71C691.343 260.044 691.843 260.254 692.44 260.342C693.036 260.43 693.641 260.386 694.255 260.21ZM702.714 268.29C702.345 268.325 702.021 268.22 701.74 267.974C701.459 267.746 701.302 267.448 701.266 267.079C701.231 266.728 701.328 266.412 701.556 266.132C701.802 265.851 702.1 265.693 702.451 265.658C702.626 265.64 702.837 265.623 703.082 265.605C703.328 265.588 703.486 265.57 703.556 265.553C703.644 265.553 703.749 265.535 703.872 265.5C703.995 265.483 704.091 265.447 704.161 265.395L704.424 265.237C704.846 265.026 705.223 264.439 705.556 263.474C705.661 263.175 705.767 262.965 705.872 262.842C705.749 262.702 705.653 262.535 705.582 262.342C705.267 260.991 704.617 258.991 703.635 256.342C702.758 254.008 702.109 252.14 701.688 250.736C701.582 250.385 701.617 250.052 701.793 249.736C701.968 249.42 702.231 249.21 702.582 249.105C702.933 248.999 703.267 249.034 703.582 249.21C703.898 249.385 704.109 249.649 704.214 249.999C704.547 251.122 705.179 252.929 706.109 255.421L707.109 258.158C708.337 254.403 709.46 251.587 710.477 249.71C710.653 249.394 710.916 249.184 711.267 249.078C711.618 248.973 711.951 249.008 712.267 249.184C712.583 249.359 712.793 249.622 712.899 249.973C713.004 250.324 712.969 250.657 712.793 250.973C712.337 251.815 711.863 252.842 711.372 254.052C710.881 255.263 710.495 256.28 710.214 257.105C709.933 257.93 709.565 259.079 709.109 260.553C709.004 260.903 708.933 261.149 708.898 261.289C708.811 261.517 708.688 261.974 708.53 262.658C708.337 263.307 708.179 263.833 708.056 264.237C707.565 265.605 706.898 266.623 706.056 267.29C705.811 267.483 705.565 267.641 705.319 267.763C705.074 267.904 704.81 268 704.53 268.053C704.267 268.123 704.056 268.167 703.898 268.184C703.74 268.22 703.512 268.237 703.214 268.237C702.933 268.255 702.767 268.272 702.714 268.29Z" fill="#D9D9D9"/>
<path d="M746.061 224.061C746.646 223.475 746.646 222.525 746.061 221.939L736.515 212.393C735.929 211.808 734.979 211.808 734.393 212.393C733.808 212.979 733.808 213.929 734.393 214.515L742.879 223L734.393 231.485C733.808 232.071 733.808 233.021 734.393 233.607C734.979 234.192 735.929 234.192 736.515 233.607L746.061 224.061ZM641.926 224.5L745 224.5V221.5L641.926 221.5V224.5Z" fill="#899FA9"/>
<path d="M1124.58 499.763C1124.58 499.588 1124.52 497 1124.39 492C1124.32 488.543 1124.38 485.736 1124.55 483.578C1124.59 483.21 1124.74 482.911 1125 482.683C1125.28 482.455 1125.61 482.35 1125.97 482.368C1126.15 482.385 1126.32 482.438 1126.47 482.525C1128.53 482.104 1130.38 482.008 1132.03 482.236C1134.92 482.64 1136.8 483.955 1137.66 486.184C1137.99 487.254 1138.11 488.131 1138.03 488.815C1137.96 489.482 1137.76 490.087 1137.42 490.631C1137.11 491.157 1136.69 491.587 1136.18 491.921C1135.69 492.254 1135.19 492.526 1134.68 492.736C1134.18 492.929 1133.63 493.079 1133.05 493.184C1131.26 493.552 1129.27 493.614 1127.08 493.368C1127.17 496.737 1127.21 498.868 1127.21 499.763C1127.21 500.132 1127.08 500.447 1126.82 500.711C1126.57 500.956 1126.26 501.079 1125.89 501.079C1125.53 501.079 1125.21 500.956 1124.95 500.711C1124.7 500.447 1124.58 500.132 1124.58 499.763ZM1127.03 490.763C1127.13 490.745 1127.25 490.736 1127.37 490.736C1129.28 490.964 1131 490.921 1132.53 490.605C1134.33 490.236 1135.3 489.535 1135.42 488.499C1135.46 488.254 1135.38 487.798 1135.18 487.131C1134.71 485.868 1133.54 485.105 1131.68 484.841C1130.35 484.666 1128.82 484.745 1127.11 485.078C1127.02 486.622 1126.99 488.517 1127.03 490.763ZM1146.52 500.579C1145.89 500.825 1145.17 500.965 1144.37 501C1143.58 501.035 1142.84 500.947 1142.16 500.737C1141.47 500.509 1140.87 500.167 1140.34 499.71C1139.43 498.956 1138.84 498.017 1138.58 496.895C1138.31 495.772 1138.3 494.763 1138.55 493.868C1138.8 492.973 1139.16 492.105 1139.66 491.263C1140.16 490.403 1140.71 489.684 1141.29 489.105C1141.88 488.508 1142.57 488.008 1143.34 487.605C1144.11 487.201 1144.92 487.008 1145.76 487.026C1146.6 487.026 1147.49 487.254 1148.42 487.71C1148.56 487.78 1148.71 487.885 1148.87 488.026C1149.04 488.166 1149.19 488.289 1149.31 488.394L1149.66 488.736C1149.76 488.842 1149.81 488.903 1149.81 488.921C1150.09 489.166 1150.24 489.482 1150.26 489.868C1150.49 490.921 1150.64 492.026 1150.71 493.184C1150.78 494.342 1150.8 495.43 1150.76 496.447C1150.74 497.465 1150.76 498.544 1150.81 499.684C1150.83 500.035 1150.72 500.342 1150.47 500.605C1150.23 500.868 1149.92 501.009 1149.55 501.026C1149.18 501.044 1148.87 500.93 1148.6 500.684C1148.34 500.439 1148.2 500.14 1148.18 499.789V499.395C1147.66 499.939 1147.1 500.333 1146.52 500.579ZM1145.34 498.21C1145.6 498.14 1145.81 498.07 1145.97 498C1146.13 497.93 1146.32 497.824 1146.55 497.684C1146.8 497.544 1147.05 497.368 1147.31 497.158C1147.58 496.947 1147.81 496.684 1148.02 496.368C1148.06 496.333 1148.1 496.298 1148.16 496.263C1148.16 493.894 1148.01 491.991 1147.71 490.552C1147.66 490.482 1147.59 490.421 1147.52 490.368C1147.47 490.298 1147.43 490.245 1147.39 490.21C1147.37 490.175 1147.34 490.149 1147.29 490.131C1147.25 490.096 1147.21 490.061 1147.16 490.026C1146.31 489.57 1145.43 489.561 1144.5 490C1143.57 490.421 1142.75 491.219 1142.05 492.394C1141.35 493.587 1141 494.631 1141 495.526C1141.01 496.403 1141.36 497.131 1142.02 497.71C1142.43 498.044 1142.93 498.254 1143.52 498.342C1144.12 498.43 1144.73 498.386 1145.34 498.21ZM1153.8 506.29C1153.43 506.325 1153.11 506.22 1152.82 505.974C1152.54 505.746 1152.39 505.448 1152.35 505.079C1152.32 504.728 1152.41 504.412 1152.64 504.132C1152.89 503.851 1153.18 503.693 1153.53 503.658C1153.71 503.64 1153.92 503.623 1154.17 503.605C1154.41 503.588 1154.57 503.57 1154.64 503.553C1154.73 503.553 1154.83 503.535 1154.96 503.5C1155.08 503.483 1155.18 503.447 1155.25 503.395L1155.51 503.237C1155.93 503.026 1156.31 502.439 1156.64 501.474C1156.75 501.175 1156.85 500.965 1156.96 500.842C1156.83 500.702 1156.74 500.535 1156.67 500.342C1156.35 498.991 1155.7 496.991 1154.72 494.342C1153.84 492.008 1153.19 490.14 1152.77 488.736C1152.67 488.385 1152.7 488.052 1152.88 487.736C1153.05 487.42 1153.32 487.21 1153.67 487.105C1154.02 486.999 1154.35 487.034 1154.67 487.21C1154.98 487.385 1155.19 487.649 1155.3 487.999C1155.63 489.122 1156.26 490.929 1157.19 493.421L1158.19 496.158C1159.42 492.403 1160.54 489.587 1161.56 487.71C1161.74 487.394 1162 487.184 1162.35 487.078C1162.7 486.973 1163.04 487.008 1163.35 487.184C1163.67 487.359 1163.88 487.622 1163.98 487.973C1164.09 488.324 1164.05 488.657 1163.88 488.973C1163.42 489.815 1162.95 490.842 1162.46 492.052C1161.97 493.263 1161.58 494.28 1161.3 495.105C1161.02 495.93 1160.65 497.079 1160.19 498.553C1160.09 498.903 1160.02 499.149 1159.98 499.289C1159.89 499.517 1159.77 499.974 1159.61 500.658C1159.42 501.307 1159.26 501.833 1159.14 502.237C1158.65 503.605 1157.98 504.623 1157.14 505.29C1156.89 505.483 1156.65 505.641 1156.4 505.763C1156.16 505.904 1155.89 506 1155.61 506.053C1155.35 506.123 1155.14 506.167 1154.98 506.184C1154.82 506.22 1154.6 506.237 1154.3 506.237C1154.02 506.255 1153.85 506.272 1153.8 506.29Z" fill="#D9D9D9"/>
<path d="M627.579 501.947C627.088 501.754 626.43 500.561 625.606 498.368L624.605 495.737L622.395 490.105L620.579 484.868C620.456 484.534 620.465 484.201 620.605 483.868C620.763 483.534 621.009 483.306 621.342 483.183C621.676 483.043 622.009 483.052 622.342 483.21C622.676 483.35 622.912 483.587 623.053 483.92L625.29 490.263C626.43 493.28 627.351 495.623 628.053 497.289L630 492.236C631.316 488.71 632.413 485.938 633.29 483.92C633.448 483.587 633.694 483.359 634.027 483.236C634.36 483.096 634.694 483.104 635.027 483.262C635.36 483.403 635.588 483.64 635.711 483.973C635.852 484.306 635.852 484.64 635.711 484.973C634.869 486.885 633.79 489.613 632.474 493.158C631 497 629.939 499.693 629.29 501.237C629.15 501.57 628.913 501.807 628.579 501.947C628.246 502.088 627.913 502.088 627.579 501.947ZM643.081 501.816C640.765 502.377 638.914 501.912 637.528 500.421C636.423 499.281 635.739 497.816 635.475 496.026C635.282 494.622 635.449 493.289 635.975 492.026C636.607 490.412 637.607 489.219 638.976 488.447C639.256 488.289 639.607 488.175 640.028 488.105C640.046 488.105 640.169 488.096 640.397 488.078C640.484 488.061 640.555 488.043 640.607 488.026C640.87 487.973 641.134 487.999 641.397 488.105C641.467 488.105 641.634 488.113 641.897 488.131C642.16 488.131 642.335 488.14 642.423 488.157C642.511 488.157 642.66 488.175 642.87 488.21C643.099 488.227 643.283 488.254 643.423 488.289L643.923 488.473C644.134 488.543 644.335 488.631 644.528 488.736C644.721 488.842 644.932 488.964 645.16 489.105C646.3 489.877 647.09 490.964 647.529 492.368C647.967 493.754 648.081 494.877 647.871 495.737C647.713 496.684 647.432 497.57 647.029 498.395C646.625 499.202 646.064 499.921 645.344 500.553C644.642 501.184 643.888 501.605 643.081 501.816ZM642.265 499.079C643.02 498.974 643.66 498.588 644.186 497.921C644.73 497.237 645.081 496.517 645.239 495.763C645.414 495.008 645.353 494.184 645.055 493.289C644.774 492.377 644.318 491.719 643.686 491.315C643.493 491.175 643.335 491.078 643.213 491.026C643.09 490.956 642.941 490.903 642.765 490.868C642.607 490.815 642.476 490.789 642.37 490.789C642.283 490.789 642.081 490.78 641.765 490.763C641.449 490.745 641.169 490.728 640.923 490.71C640.87 490.71 640.809 490.701 640.739 490.684C640.546 490.701 640.441 490.71 640.423 490.71L640.239 490.763C639.467 491.184 638.87 491.859 638.449 492.789C638.046 493.701 637.932 494.649 638.107 495.631C638.3 496.824 638.73 497.728 639.397 498.342C640.116 499.009 641.072 499.254 642.265 499.079ZM650.907 500.737C650.872 499.421 650.872 497.403 650.907 494.684C650.959 491.964 650.986 490.184 650.986 489.342C650.986 488.973 651.108 488.666 651.354 488.42C651.617 488.157 651.933 488.026 652.301 488.026C652.67 488.026 652.977 488.157 653.222 488.42C653.486 488.666 653.617 488.973 653.617 489.342C653.617 490.184 653.591 491.956 653.538 494.658C653.503 497.359 653.503 499.368 653.538 500.684C653.538 501.053 653.415 501.368 653.17 501.632C652.924 501.895 652.617 502.026 652.249 502.026C651.88 502.026 651.565 501.904 651.301 501.658C651.038 501.412 650.907 501.105 650.907 500.737ZM653.354 483.473C653.652 483.771 653.801 484.14 653.801 484.578C653.801 485.017 653.652 485.385 653.354 485.683C653.056 485.982 652.687 486.131 652.249 486.131C651.81 486.131 651.442 485.982 651.143 485.683C650.845 485.385 650.696 485.017 650.696 484.578C650.696 484.14 650.845 483.771 651.143 483.473C651.442 483.175 651.81 483.025 652.249 483.025C652.705 483.008 653.073 483.157 653.354 483.473ZM667.391 502C667.11 502 666.856 501.921 666.628 501.763C666.4 501.605 666.242 501.307 666.154 500.868C665.4 501.412 664.61 501.763 663.785 501.921C662.645 502.132 661.601 502.07 660.654 501.737C659.706 501.403 658.908 500.851 658.259 500.079C657.083 498.71 656.504 496.973 656.522 494.868C656.54 492.973 657.154 491.342 658.364 489.973C659.82 488.341 661.733 487.736 664.101 488.157C664.908 488.298 665.522 488.482 665.943 488.71L665.891 484.499C665.891 484.131 666.014 483.815 666.259 483.552C666.522 483.289 666.829 483.157 667.18 483.157C667.549 483.157 667.865 483.289 668.128 483.552C668.391 483.797 668.523 484.096 668.523 484.447C668.645 492.447 668.707 497.859 668.707 500.684C668.707 501.053 668.575 501.368 668.312 501.632C668.066 501.877 667.759 502 667.391 502ZM663.312 499.342C663.645 499.272 663.996 499.149 664.364 498.974C664.733 498.798 664.987 498.658 665.128 498.552C665.286 498.43 665.4 498.324 665.47 498.237C665.557 498.149 665.654 498.052 665.759 497.947C665.864 497.824 665.961 497.64 666.049 497.395C666.049 495.166 666.031 493.394 665.996 492.079C665.979 492.079 665.961 492.07 665.943 492.052C665.207 491.421 664.838 491.096 664.838 491.078C664.645 490.956 664.242 490.842 663.628 490.736C662.224 490.491 661.127 490.824 660.338 491.736C659.548 492.596 659.154 493.64 659.154 494.868C659.136 496.324 659.505 497.5 660.259 498.395C661.013 499.272 662.031 499.588 663.312 499.342Z" fill="#D9D9D9"/>
<path d="M991.579 500.947C991.088 500.754 990.43 499.561 989.606 497.368L988.605 494.737L986.395 489.105L984.579 483.868C984.456 483.534 984.465 483.201 984.605 482.868C984.763 482.534 985.009 482.306 985.342 482.183C985.676 482.043 986.009 482.052 986.342 482.21C986.676 482.35 986.912 482.587 987.053 482.92L989.29 489.263C990.43 492.28 991.351 494.623 992.053 496.289L994 491.236C995.316 487.71 996.413 484.938 997.29 482.92C997.448 482.587 997.694 482.359 998.027 482.236C998.36 482.096 998.694 482.104 999.027 482.262C999.36 482.403 999.588 482.64 999.711 482.973C999.852 483.306 999.852 483.64 999.711 483.973C998.869 485.885 997.79 488.613 996.474 492.158C995 496 993.939 498.693 993.29 500.237C993.15 500.57 992.913 500.807 992.579 500.947C992.246 501.088 991.913 501.088 991.579 500.947ZM1007.08 500.816C1004.77 501.377 1002.91 500.912 1001.53 499.421C1000.42 498.281 999.739 496.816 999.475 495.026C999.282 493.622 999.449 492.289 999.975 491.026C1000.61 489.412 1001.61 488.219 1002.98 487.447C1003.26 487.289 1003.61 487.175 1004.03 487.105C1004.05 487.105 1004.17 487.096 1004.4 487.078C1004.48 487.061 1004.55 487.043 1004.61 487.026C1004.87 486.973 1005.13 486.999 1005.4 487.105C1005.47 487.105 1005.63 487.113 1005.9 487.131C1006.16 487.131 1006.34 487.14 1006.42 487.157C1006.51 487.157 1006.66 487.175 1006.87 487.21C1007.1 487.227 1007.28 487.254 1007.42 487.289L1007.92 487.473C1008.13 487.543 1008.34 487.631 1008.53 487.736C1008.72 487.842 1008.93 487.964 1009.16 488.105C1010.3 488.877 1011.09 489.964 1011.53 491.368C1011.97 492.754 1012.08 493.877 1011.87 494.737C1011.71 495.684 1011.43 496.57 1011.03 497.395C1010.63 498.202 1010.06 498.921 1009.34 499.553C1008.64 500.184 1007.89 500.605 1007.08 500.816ZM1006.27 498.079C1007.02 497.974 1007.66 497.588 1008.19 496.921C1008.73 496.237 1009.08 495.517 1009.24 494.763C1009.41 494.008 1009.35 493.184 1009.05 492.289C1008.77 491.377 1008.32 490.719 1007.69 490.315C1007.49 490.175 1007.34 490.078 1007.21 490.026C1007.09 489.956 1006.94 489.903 1006.77 489.868C1006.61 489.815 1006.48 489.789 1006.37 489.789C1006.28 489.789 1006.08 489.78 1005.77 489.763C1005.45 489.745 1005.17 489.728 1004.92 489.71C1004.87 489.71 1004.81 489.701 1004.74 489.684C1004.55 489.701 1004.44 489.71 1004.42 489.71L1004.24 489.763C1003.47 490.184 1002.87 490.859 1002.45 491.789C1002.05 492.701 1001.93 493.649 1002.11 494.631C1002.3 495.824 1002.73 496.728 1003.4 497.342C1004.12 498.009 1005.07 498.254 1006.27 498.079ZM1014.91 499.737C1014.87 498.421 1014.87 496.403 1014.91 493.684C1014.96 490.964 1014.99 489.184 1014.99 488.342C1014.99 487.973 1015.11 487.666 1015.35 487.42C1015.62 487.157 1015.93 487.026 1016.3 487.026C1016.67 487.026 1016.98 487.157 1017.22 487.42C1017.49 487.666 1017.62 487.973 1017.62 488.342C1017.62 489.184 1017.59 490.956 1017.54 493.658C1017.5 496.359 1017.5 498.368 1017.54 499.684C1017.54 500.053 1017.42 500.368 1017.17 500.632C1016.92 500.895 1016.62 501.026 1016.25 501.026C1015.88 501.026 1015.56 500.904 1015.3 500.658C1015.04 500.412 1014.91 500.105 1014.91 499.737ZM1017.35 482.473C1017.65 482.771 1017.8 483.14 1017.8 483.578C1017.8 484.017 1017.65 484.385 1017.35 484.683C1017.06 484.982 1016.69 485.131 1016.25 485.131C1015.81 485.131 1015.44 484.982 1015.14 484.683C1014.85 484.385 1014.7 484.017 1014.7 483.578C1014.7 483.14 1014.85 482.771 1015.14 482.473C1015.44 482.175 1015.81 482.025 1016.25 482.025C1016.7 482.008 1017.07 482.157 1017.35 482.473ZM1031.39 501C1031.11 501 1030.86 500.921 1030.63 500.763C1030.4 500.605 1030.24 500.307 1030.15 499.868C1029.4 500.412 1028.61 500.763 1027.79 500.921C1026.65 501.132 1025.6 501.07 1024.65 500.737C1023.71 500.403 1022.91 499.851 1022.26 499.079C1021.08 497.71 1020.5 495.973 1020.52 493.868C1020.54 491.973 1021.15 490.342 1022.36 488.973C1023.82 487.341 1025.73 486.736 1028.1 487.157C1028.91 487.298 1029.52 487.482 1029.94 487.71L1029.89 483.499C1029.89 483.131 1030.01 482.815 1030.26 482.552C1030.52 482.289 1030.83 482.157 1031.18 482.157C1031.55 482.157 1031.86 482.289 1032.13 482.552C1032.39 482.797 1032.52 483.096 1032.52 483.447C1032.65 491.447 1032.71 496.859 1032.71 499.684C1032.71 500.053 1032.58 500.368 1032.31 500.632C1032.07 500.877 1031.76 501 1031.39 501ZM1027.31 498.342C1027.65 498.272 1028 498.149 1028.36 497.974C1028.73 497.798 1028.99 497.658 1029.13 497.552C1029.29 497.43 1029.4 497.324 1029.47 497.237C1029.56 497.149 1029.65 497.052 1029.76 496.947C1029.86 496.824 1029.96 496.64 1030.05 496.395C1030.05 494.166 1030.03 492.394 1030 491.079C1029.98 491.079 1029.96 491.07 1029.94 491.052C1029.21 490.421 1028.84 490.096 1028.84 490.078C1028.65 489.956 1028.24 489.842 1027.63 489.736C1026.22 489.491 1025.13 489.824 1024.34 490.736C1023.55 491.596 1023.15 492.64 1023.15 493.868C1023.14 495.324 1023.5 496.5 1024.26 497.395C1025.01 498.272 1026.03 498.588 1027.31 498.342Z" fill="#D9D9D9"/>
<path d="M614.527 745.211C613.562 745.211 612.614 745.088 611.685 744.842C610.755 744.596 609.948 744.254 609.263 743.816C608.491 743.324 607.79 742.631 607.158 741.737C606.544 740.842 606.061 739.868 605.711 738.816C605.36 737.745 605.184 736.719 605.184 735.736C605.184 734.421 605.465 733.14 606.026 731.894C606.588 730.648 607.377 729.517 608.395 728.499C609.167 727.727 610.035 727.131 611 726.71C612.141 726.236 613.29 725.999 614.448 725.999C615.448 725.999 616.448 726.192 617.448 726.578C618.097 726.824 618.65 727.14 619.106 727.526C619.562 727.894 620.062 728.385 620.606 728.999L621.396 729.973C621.606 730.236 621.711 730.508 621.711 730.789C621.711 731.14 621.571 731.447 621.29 731.71C621.01 731.973 620.685 732.105 620.317 732.105C619.948 732.105 619.623 731.938 619.343 731.605L618.369 730.42C618.123 730.157 617.834 729.903 617.501 729.657C617.167 729.394 616.834 729.192 616.501 729.052C615.746 728.736 614.992 728.605 614.237 728.657C612.641 728.798 611.299 729.385 610.211 730.42C608.614 731.964 607.816 733.736 607.816 735.736C607.816 736.807 608.097 737.93 608.658 739.105C609.237 740.263 609.913 741.096 610.685 741.605C611.158 741.903 611.728 742.14 612.395 742.316C613.062 742.491 613.746 742.579 614.448 742.579C616.571 742.579 617.957 741.991 618.606 740.816C618.729 740.605 618.878 740.202 619.053 739.605L619.316 738.763C619.422 738.482 619.58 738.263 619.79 738.105C620.018 737.947 620.255 737.868 620.501 737.868C620.852 737.868 621.167 737.991 621.448 738.237C621.729 738.482 621.869 738.798 621.869 739.184C621.869 739.342 621.843 739.5 621.79 739.658L621.606 740.21C621.308 741.123 621.08 741.745 620.922 742.079C620.378 743.026 619.615 743.754 618.632 744.263C617.65 744.772 616.527 745.079 615.264 745.184C615.106 745.202 614.86 745.211 614.527 745.211ZM631.736 744.579C631.105 744.825 630.385 744.965 629.578 745C628.789 745.035 628.052 744.947 627.368 744.737C626.684 744.509 626.078 744.167 625.552 743.71C624.64 742.956 624.052 742.017 623.789 740.895C623.526 739.772 623.517 738.763 623.762 737.868C624.008 736.973 624.376 736.105 624.868 735.263C625.376 734.403 625.92 733.684 626.499 733.105C627.096 732.508 627.78 732.008 628.552 731.605C629.324 731.201 630.131 731.008 630.973 731.026C631.815 731.026 632.701 731.254 633.631 731.71C633.772 731.78 633.921 731.885 634.079 732.026C634.254 732.166 634.403 732.289 634.526 732.394L634.868 732.736C634.973 732.842 635.026 732.903 635.026 732.921C635.307 733.166 635.456 733.482 635.473 733.868C635.702 734.921 635.851 736.026 635.921 737.184C635.991 738.342 636.009 739.43 635.973 740.447C635.956 741.465 635.973 742.544 636.026 743.684C636.044 744.035 635.93 744.342 635.684 744.605C635.438 744.868 635.131 745.009 634.763 745.026C634.394 745.044 634.079 744.93 633.815 744.684C633.552 744.439 633.412 744.14 633.394 743.789V743.395C632.868 743.939 632.315 744.333 631.736 744.579ZM630.552 742.21C630.815 742.14 631.026 742.07 631.184 742C631.342 741.93 631.535 741.824 631.763 741.684C632.008 741.544 632.263 741.368 632.526 741.158C632.789 740.947 633.026 740.684 633.236 740.368C633.272 740.333 633.315 740.298 633.368 740.263C633.368 737.894 633.219 735.991 632.921 734.552C632.868 734.482 632.807 734.421 632.736 734.368C632.684 734.298 632.64 734.245 632.605 734.21C632.587 734.175 632.552 734.149 632.5 734.131C632.465 734.096 632.421 734.061 632.368 734.026C631.526 733.57 630.64 733.561 629.71 734C628.78 734.421 627.964 735.219 627.263 736.394C626.561 737.587 626.21 738.631 626.21 739.526C626.227 740.403 626.57 741.131 627.236 741.71C627.64 742.044 628.14 742.254 628.736 742.342C629.333 742.43 629.938 742.386 630.552 742.21ZM640.721 745C640.37 745 640.063 744.886 639.8 744.658C639.537 744.412 639.405 744.088 639.405 743.684C639.405 742.298 639.397 741.105 639.379 740.105C639.344 737.122 639.326 734.535 639.326 732.342C639.326 731.938 639.449 731.622 639.695 731.394C639.94 731.166 640.239 731.052 640.59 731.052C640.958 731.052 641.274 731.175 641.537 731.42C641.818 731.649 641.958 731.973 641.958 732.394V733.21C643.046 731.789 644.476 731.078 646.248 731.078C647.774 731.078 648.941 731.613 649.748 732.684C650.573 733.754 650.985 735.193 650.985 737C650.985 739 650.958 740.316 650.906 740.947L650.774 742.71L650.695 743.842C650.66 744.193 650.52 744.474 650.274 744.684C650.029 744.895 649.739 745 649.406 745C649.055 745 648.748 744.886 648.485 744.658C648.222 744.412 648.09 744.088 648.09 743.684C648.09 743.403 648.151 742.43 648.274 740.763C648.362 739.623 648.406 738.728 648.406 738.079C648.406 736.587 648.195 735.491 647.774 734.789C647.353 734.07 646.704 733.71 645.827 733.71C645.195 733.71 644.537 733.903 643.853 734.289C643.186 734.675 642.555 735.166 641.958 735.763L642.011 739.5L642.037 743.684C642.037 744.088 641.905 744.412 641.642 744.658C641.379 744.886 641.072 745 640.721 745ZM660.366 745.053C659.366 745.07 658.383 744.895 657.418 744.526C656.471 744.158 655.69 743.623 655.076 742.921C654.444 742.184 654.023 741.307 653.813 740.289C653.62 739.254 653.611 738.272 653.786 737.342C653.979 736.412 654.295 735.517 654.734 734.657C655.085 734.008 655.506 733.429 655.997 732.921C656.488 732.394 657.058 731.956 657.708 731.605C658.374 731.236 659.076 731.043 659.813 731.026C660.567 730.991 661.374 731.149 662.234 731.499C662.69 731.71 663.155 732.043 663.629 732.499L664.471 733.342C664.752 733.57 664.91 733.868 664.945 734.236C664.98 734.605 664.875 734.929 664.629 735.21C664.401 735.473 664.103 735.622 663.734 735.657C663.366 735.693 663.05 735.587 662.787 735.342C662.629 735.219 662.445 735.052 662.234 734.842L661.787 734.394C661.541 734.149 661.339 733.991 661.181 733.921C660.392 733.57 659.637 733.578 658.918 733.947C658.199 734.298 657.585 734.947 657.076 735.894C656.55 736.877 656.286 737.859 656.286 738.842C656.304 739.824 656.567 740.605 657.076 741.184C657.392 741.552 657.848 741.851 658.444 742.079C659.041 742.307 659.673 742.421 660.339 742.421C661.69 742.386 662.559 741.903 662.945 740.974L662.918 740.842V740.079C662.936 739.71 663.076 739.412 663.339 739.184C663.62 738.938 663.945 738.824 664.313 738.842C664.682 738.859 664.98 739.009 665.208 739.289C665.454 739.552 665.568 739.868 665.55 740.237V740.816C665.568 741.254 665.506 741.64 665.366 741.974C664.962 742.991 664.296 743.754 663.366 744.263C662.453 744.772 661.453 745.035 660.366 745.053ZM674.688 745.132C673.39 745.044 672.258 744.781 671.293 744.342C670.328 743.903 669.591 743.351 669.082 742.684C668.574 742.017 668.205 741.403 667.977 740.842C667.749 740.28 667.609 739.728 667.556 739.184C667.503 738.623 667.53 737.903 667.635 737.026C667.758 736.289 668.012 735.561 668.398 734.842C668.802 734.122 669.328 733.482 669.977 732.921C670.644 732.342 671.442 731.903 672.372 731.605C673.302 731.289 674.293 731.192 675.346 731.315C676.363 731.438 677.232 731.719 677.951 732.157C678.671 732.578 679.285 733.122 679.793 733.789C680.232 734.35 680.495 734.771 680.583 735.052C680.688 735.333 680.776 735.596 680.846 735.842C680.934 736.087 681.004 736.298 681.057 736.473C681.109 736.649 681.153 736.833 681.188 737.026C681.241 737.201 681.276 737.412 681.294 737.658C681.311 737.991 681.25 738.298 681.109 738.579C680.969 738.859 680.758 739.079 680.478 739.237C680.25 739.324 680.004 739.368 679.741 739.368L675.241 739.447C672.083 739.465 670.504 739.5 670.504 739.552H670.425C670.653 740.447 671.126 741.149 671.846 741.658C672.583 742.167 673.583 742.465 674.846 742.553C675.53 742.588 676.1 742.553 676.556 742.447C677.065 742.307 677.434 742.184 677.662 742.079C677.89 741.956 678.171 741.798 678.504 741.605C678.837 741.482 679.171 741.5 679.504 741.658C679.837 741.816 680.065 742.061 680.188 742.395C680.311 742.728 680.293 743.053 680.136 743.368C679.995 743.684 679.767 743.93 679.451 744.105C679.171 744.263 678.881 744.403 678.583 744.526C678.285 744.632 677.846 744.763 677.267 744.921C676.688 745.079 675.828 745.149 674.688 745.132ZM670.477 736.973C671.495 736.921 674.135 736.868 678.399 736.815C678.241 736.289 677.986 735.789 677.635 735.315C676.934 734.508 676.065 734.043 675.03 733.921C673.942 733.78 672.986 734.017 672.162 734.631C671.337 735.228 670.776 736.008 670.477 736.973ZM686.288 743.737C686.27 744.105 686.13 744.412 685.867 744.658C685.604 744.904 685.288 745.018 684.919 745C684.551 744.982 684.244 744.842 683.998 744.579C683.753 744.316 683.639 744 683.656 743.632C683.726 741.298 683.761 739.526 683.761 738.315C683.761 737.105 683.744 735.298 683.709 732.894C683.674 730.491 683.656 728.683 683.656 727.473C683.656 727.104 683.779 726.797 684.025 726.552C684.288 726.289 684.603 726.157 684.972 726.157C685.34 726.157 685.647 726.289 685.893 726.552C686.156 726.797 686.288 727.104 686.288 727.473C686.288 728.683 686.305 730.403 686.34 732.631C686.376 734.859 686.384 736.886 686.367 738.71C686.367 740.517 686.34 742.193 686.288 743.737Z" fill="#D9D9D9"/>
<path d="M746.061 464.061C746.646 463.475 746.646 462.525 746.061 461.939L736.515 452.393C735.929 451.808 734.979 451.808 734.393 452.393C733.808 452.979 733.808 453.929 734.393 454.515L742.879 463L734.393 471.485C733.808 472.071 733.808 473.021 734.393 473.607C734.979 474.192 735.929 474.192 736.515 473.607L746.061 464.061ZM542.5 417V326H539.5V417H542.5ZM745 461.5H689.065V464.5H745V461.5ZM689.065 461.5H587V464.5H689.065V461.5ZM539.5 417C539.5 443.234 560.766 464.5 587 464.5V461.5C562.423 461.5 542.5 441.577 542.5 417H539.5Z" fill="#899FA9"/>
<path d="M746.061 696.061C746.646 695.475 746.646 694.525 746.061 693.939L736.515 684.393C735.929 683.808 734.979 683.808 734.393 684.393C733.808 684.979 733.808 685.929 734.393 686.515L742.879 695L734.393 703.485C733.808 704.071 733.808 705.021 734.393 705.607C734.979 706.192 735.929 706.192 736.515 705.607L746.061 696.061ZM542.5 649V326H539.5V649H542.5ZM745 693.5H689.065V696.5H745V693.5ZM689.065 693.5H587V696.5H689.065V693.5ZM539.5 649C539.5 675.234 560.766 696.5 587 696.5V693.5C562.423 693.5 542.5 673.577 542.5 649H539.5Z" fill="#899FA9"/>
<path d="M929.939 453.939C929.354 454.525 929.354 455.475 929.939 456.061L939.485 465.607C940.071 466.192 941.021 466.192 941.607 465.607C942.192 465.021 942.192 464.071 941.607 463.485L933.121 455L941.607 446.515C942.192 445.929 942.192 444.979 941.607 444.393C941.021 443.808 940.071 443.808 939.485 444.393L929.939 453.939ZM1065.5 502V648H1068.5V502H1065.5ZM931 456.5H1020V453.5H931V456.5ZM1020 693.5H931.335V696.5H1020V693.5ZM1065.5 648C1065.5 673.129 1045.13 693.5 1020 693.5V696.5C1046.79 696.5 1068.5 674.786 1068.5 648H1065.5ZM1068.5 502C1068.5 475.214 1046.79 453.5 1020 453.5V456.5C1045.13 456.5 1065.5 476.871 1065.5 502H1068.5Z" fill="#899FA9"/>
<path d="M929.939 221.939C929.354 222.525 929.354 223.475 929.939 224.061L939.485 233.607C940.071 234.192 941.021 234.192 941.607 233.607C942.192 233.021 942.192 232.071 941.607 231.485L933.121 223L941.607 214.515C942.192 213.929 942.192 212.979 941.607 212.393C941.021 211.808 940.071 211.808 939.485 212.393L929.939 221.939ZM1174.5 270V648H1177.5V270H1174.5ZM931 224.5H1129V221.5H931V224.5ZM1129 693.5H931.603V696.5H1129V693.5ZM1174.5 648C1174.5 673.129 1154.13 693.5 1129 693.5V696.5C1155.79 696.5 1177.5 674.786 1177.5 648H1174.5ZM1177.5 270C1177.5 243.214 1155.79 221.5 1129 221.5V224.5C1154.13 224.5 1174.5 244.871 1174.5 270H1177.5Z" fill="#899FA9"/>
</svg>
