<svg width="1375" height="624" viewBox="0 0 1375 624" fill="none" xmlns="http://www.w3.org/2000/svg">
<g clip-path="url(#clip0_28_80)">
<circle cx="739.064" cy="73.0642" r="71.4842" stroke="#D9D9D9" stroke-width="3.16"/>
<circle cx="1036.06" cy="73.0642" r="71.4842" stroke="#D9D9D9" stroke-width="3.16"/>
<circle cx="1036.06" cy="312.064" r="71.4842" stroke="#D9D9D9" stroke-width="3.16"/>
<circle cx="1036.06" cy="551.064" r="71.4842" stroke="#F3786F" stroke-width="3.16"/>
<circle cx="1036.06" cy="551.064" r="71.4842" stroke="#F3786F" stroke-width="3.16"/>
<path d="M519.548 73.0642C519.548 112.544 487.544 144.548 448.064 144.548C408.585 144.548 376.58 112.544 376.58 73.0642C376.58 33.5846 408.585 1.58 448.064 1.58C487.544 1.58 519.548 33.5846 519.548 73.0642Z" stroke="#D9D9D9" stroke-width="3.16"/>
<circle cx="448" cy="226" r="20" transform="rotate(-90 448 226)" fill="#546973"/>
<path d="M450.475 153.525C449.108 152.158 446.892 152.158 445.525 153.525L423.251 175.799C421.884 177.166 421.884 179.382 423.251 180.749C424.618 182.116 426.834 182.116 428.201 180.749L448 160.95L467.799 180.749C469.166 182.116 471.382 182.116 472.749 180.749C474.116 179.382 474.116 177.166 472.749 175.799L450.475 153.525ZM451.5 207L451.5 156L444.5 156L444.5 207L451.5 207Z" fill="#899FA9"/>
<path d="M644.475 75.4749C645.842 74.108 645.842 71.892 644.475 70.5251L622.201 48.2513C620.834 46.8844 618.618 46.8844 617.251 48.2513C615.884 49.6181 615.884 51.8342 617.251 53.201L637.05 73L617.251 92.799C615.884 94.1658 615.884 96.3819 617.251 97.7487C618.618 99.1156 620.834 99.1156 622.201 97.7487L644.475 75.4749ZM546 76.5L642 76.5V69.5L546 69.5V76.5Z" fill="#899FA9"/>
<path d="M946.475 75.4749C947.842 74.108 947.842 71.892 946.475 70.5251L924.201 48.2513C922.835 46.8844 920.619 46.8844 919.252 48.2513C917.885 49.6181 917.885 51.8342 919.252 53.201L939.051 73L919.252 92.799C917.885 94.1658 917.885 96.3819 919.252 97.7487C920.619 99.1156 922.835 99.1156 924.201 97.7487L946.475 75.4749ZM840.927 76.5L944 76.5V69.5L840.927 69.5V76.5Z" fill="#899FA9"/>
<path d="M946.475 315.475C947.842 314.108 947.842 311.892 946.475 310.525L924.201 288.251C922.834 286.884 920.618 286.884 919.251 288.251C917.884 289.618 917.884 291.834 919.251 293.201L939.05 313L919.251 332.799C917.884 334.166 917.884 336.382 919.251 337.749C920.618 339.116 922.834 339.116 924.201 337.749L946.475 315.475ZM743.5 267V176H736.5V267H743.5ZM944 309.5H888.065V316.5H944V309.5ZM888.065 309.5H786V316.5H888.065V309.5ZM736.5 267C736.5 294.338 758.662 316.5 786 316.5V309.5C762.528 309.5 743.5 290.472 743.5 267H736.5Z" fill="#899FA9"/>
<path d="M946.475 547.475C947.842 546.108 947.842 543.892 946.475 542.525L924.201 520.251C922.834 518.884 920.618 518.884 919.251 520.251C917.884 521.618 917.884 523.834 919.251 525.201L939.05 545L919.251 564.799C917.884 566.166 917.884 568.382 919.251 569.749C920.618 571.116 922.834 571.116 924.201 569.749L946.475 547.475ZM743.5 499V176H736.5V499H743.5ZM944 541.5H888.065V548.5H944V541.5ZM888.065 541.5H786V548.5H888.065V541.5ZM736.5 499C736.5 526.338 758.662 548.5 786 548.5V541.5C762.528 541.5 743.5 522.472 743.5 499H736.5Z" fill="#899FA9"/>
<path d="M1127.53 302.525C1126.16 303.892 1126.16 306.108 1127.53 307.475L1149.8 329.749C1151.17 331.116 1153.38 331.116 1154.75 329.749C1156.12 328.382 1156.12 326.166 1154.75 324.799L1134.95 305L1154.75 285.201C1156.12 283.834 1156.12 281.618 1154.75 280.251C1153.38 278.884 1151.17 278.884 1149.8 280.251L1127.53 302.525ZM1262.5 352V498H1269.5V352H1262.5ZM1130 308.5H1219V301.5H1130V308.5ZM1219 541.5H1130.33V548.5H1219V541.5ZM1262.5 498C1262.5 522.024 1243.02 541.5 1219 541.5V548.5C1246.89 548.5 1269.5 525.89 1269.5 498H1262.5ZM1269.5 352C1269.5 324.11 1246.89 301.5 1219 301.5V308.5C1243.02 308.5 1262.5 327.976 1262.5 352H1269.5Z" fill="#899FA9"/>
<path d="M1127.53 70.5251C1126.16 71.892 1126.16 74.108 1127.53 75.4749L1149.8 97.7487C1151.17 99.1156 1153.38 99.1156 1154.75 97.7487C1156.12 96.3819 1156.12 94.1658 1154.75 92.799L1134.95 73L1154.75 53.201C1156.12 51.8342 1156.12 49.6181 1154.75 48.2513C1153.38 46.8844 1151.17 46.8844 1149.8 48.2513L1127.53 70.5251ZM1371.5 120V498H1378.5V120H1371.5ZM1130 76.5H1328V69.5H1130V76.5ZM1328 541.5H1130.6V548.5H1328V541.5ZM1371.5 498C1371.5 522.024 1352.02 541.5 1328 541.5V548.5C1355.89 548.5 1378.5 525.89 1378.5 498H1371.5ZM1378.5 120C1378.5 92.1096 1355.89 69.5 1328 69.5V76.5C1352.02 76.5 1371.5 95.9756 1371.5 120H1378.5Z" fill="#CBE695"/>
<path d="M48.6001 397.94C44.1508 397.94 40.1401 397.094 36.5681 395.402C32.9961 393.647 30.1761 391.266 28.1081 388.258C26.1028 385.187 25.1001 381.709 25.1001 377.824C25.1001 376.32 25.5701 375.129 26.5101 374.252C27.5128 373.312 28.6721 372.842 29.9881 372.842C30.9908 372.842 31.8994 373.155 32.7141 373.782C33.5288 374.409 34.0301 375.349 34.2181 376.602C35.0954 384.686 40.2968 388.728 49.8221 388.728C54.3968 388.728 58.0001 387.725 60.6321 385.72C63.2641 383.715 64.5801 381.145 64.5801 378.012C64.5801 376.132 63.6714 374.565 61.8541 373.312C60.0368 371.996 57.5614 370.837 54.4281 369.834L51.5141 368.8C45.3101 366.732 40.8608 365.04 38.1661 363.724C34.2808 361.781 31.3668 359.494 29.4241 356.862C27.5441 354.23 26.6041 351.128 26.6041 347.556C26.6041 344.423 27.6068 341.415 29.6121 338.532C31.6174 335.649 34.4061 333.331 37.9781 331.576C41.6128 329.759 45.6548 328.85 50.1041 328.85C54.7414 328.85 58.8774 329.696 62.5121 331.388C66.1468 333.08 68.9668 335.336 70.9721 338.156C72.9774 340.976 73.9801 343.984 73.9801 347.18C73.9801 348.809 73.5101 350.094 72.5701 351.034C71.6928 351.911 70.5961 352.35 69.2801 352.35C68.0268 352.35 66.9614 351.911 66.0841 351.034C65.2068 350.094 64.7681 348.872 64.7681 347.368C64.7681 345.801 64.0788 344.297 62.7001 342.856C61.3841 341.352 59.5668 340.161 57.2481 339.284C54.9921 338.344 52.5168 337.874 49.8221 337.874C45.1848 337.874 41.7381 338.689 39.4821 340.318C37.2261 341.885 36.0354 344.078 35.9101 346.898C35.8474 348.402 36.3174 349.718 37.3201 350.846C38.3228 351.974 39.8894 353.133 42.0201 354.324C44.0254 355.389 46.1561 356.392 48.4121 357.332C50.6681 358.209 53.6761 359.275 57.4361 360.528C62.4494 362.22 66.4288 364.445 69.3741 367.202C72.3821 369.897 73.8861 373.406 73.8861 377.73C73.8861 381.741 72.6954 385.281 70.3141 388.352C67.9328 391.423 64.7994 393.804 60.9141 395.496C57.0914 397.125 52.9868 397.94 48.6001 397.94ZM99.8742 396.718C99.4982 396.593 98.7148 396.405 97.5242 396.154C96.3962 395.903 95.3935 395.621 94.5162 395.308C93.7015 394.995 92.7302 394.556 91.6022 393.992C90.5368 393.365 89.5655 392.551 88.6882 391.548C87.8108 390.483 87.0588 389.229 86.4322 387.788C85.7428 386.096 85.3042 382.775 85.1162 377.824C84.9282 374.001 84.8968 369.082 85.0222 363.066C85.0222 361.938 85.0535 360.058 85.1162 357.426L84.3642 357.52C83.0482 357.645 81.8888 357.301 80.8862 356.486C79.8835 355.671 79.2882 354.637 79.1002 353.384C78.9748 352.068 79.3195 350.909 80.1342 349.906C80.9488 348.903 81.9828 348.308 83.2362 348.12L85.3982 347.932C85.4608 344.611 85.5548 341.258 85.6802 337.874C85.7428 336.558 86.2442 335.461 87.1842 334.584C88.1242 333.707 89.2522 333.299 90.5682 333.362C91.8842 333.425 92.9808 333.926 93.8582 334.866C94.7355 335.806 95.1428 336.934 95.0802 338.25L94.7982 347.18L97.9002 346.992C99.2162 346.929 100.344 347.305 101.284 348.12C102.287 348.935 102.819 350 102.882 351.316C103.007 352.632 102.663 353.791 101.848 354.794C101.033 355.734 99.9682 356.267 98.6522 356.392L94.5162 356.58C94.4535 359.588 94.4222 361.781 94.4222 363.16C94.2968 369.051 94.3282 373.845 94.5162 377.542C94.6415 381.302 94.8295 383.464 95.0802 384.028C95.3308 384.592 95.5188 384.999 95.6442 385.25C95.7695 385.438 95.9888 385.657 96.3022 385.908C96.6782 386.096 97.0542 386.221 97.4302 386.284C97.8062 386.347 98.4955 386.535 99.4982 386.848C100.563 387.099 101.691 387.443 102.882 387.882C104.073 388.258 104.95 389.041 105.514 390.232C106.141 391.36 106.235 392.551 105.796 393.804C105.42 394.995 104.637 395.903 103.446 396.53C102.318 397.094 101.127 397.157 99.8742 396.718ZM138.308 395.496C136.052 396.373 133.483 396.875 130.6 397C127.78 397.125 125.148 396.812 122.704 396.06C120.26 395.245 118.098 394.023 116.218 392.394C112.96 389.699 110.86 386.347 109.92 382.336C108.98 378.325 108.949 374.722 109.826 371.526C110.704 368.33 112.02 365.228 113.774 362.22C115.592 359.149 117.534 356.58 119.602 354.512C121.733 352.381 124.177 350.595 126.934 349.154C129.692 347.713 132.574 347.023 135.582 347.086C138.59 347.086 141.755 347.901 145.076 349.53C145.578 349.781 146.11 350.157 146.674 350.658C147.301 351.159 147.834 351.598 148.272 351.974L149.494 353.196C149.87 353.572 150.058 353.791 150.058 353.854C151.061 354.731 151.594 355.859 151.656 357.238C152.471 360.998 153.004 364.946 153.254 369.082C153.505 373.218 153.568 377.103 153.442 380.738C153.38 384.373 153.442 388.227 153.63 392.3C153.693 393.553 153.286 394.65 152.408 395.59C151.531 396.53 150.434 397.031 149.118 397.094C147.802 397.157 146.674 396.749 145.734 395.872C144.794 394.995 144.293 393.929 144.23 392.676V391.266C142.35 393.209 140.376 394.619 138.308 395.496ZM134.078 387.036C135.018 386.785 135.77 386.535 136.334 386.284C136.898 386.033 137.588 385.657 138.402 385.156C139.28 384.655 140.188 384.028 141.128 383.276C142.068 382.524 142.914 381.584 143.666 380.456C143.792 380.331 143.948 380.205 144.136 380.08C144.136 371.62 143.604 364.821 142.538 359.682C142.35 359.431 142.131 359.212 141.88 359.024C141.692 358.773 141.536 358.585 141.41 358.46C141.348 358.335 141.222 358.241 141.034 358.178C140.909 358.053 140.752 357.927 140.564 357.802C137.556 356.173 134.392 356.141 131.07 357.708C127.749 359.212 124.835 362.063 122.328 366.262C119.822 370.523 118.568 374.252 118.568 377.448C118.631 380.581 119.853 383.182 122.234 385.25C123.676 386.441 125.462 387.193 127.592 387.506C129.723 387.819 131.885 387.663 134.078 387.036ZM181.023 396.718C180.647 396.593 179.863 396.405 178.673 396.154C177.545 395.903 176.542 395.621 175.665 395.308C174.85 394.995 173.879 394.556 172.751 393.992C171.685 393.365 170.714 392.551 169.837 391.548C168.959 390.483 168.207 389.229 167.581 387.788C166.891 386.096 166.453 382.775 166.265 377.824C166.077 374.001 166.045 369.082 166.171 363.066C166.171 361.938 166.202 360.058 166.265 357.426L165.513 357.52C164.197 357.645 163.037 357.301 162.035 356.486C161.032 355.671 160.437 354.637 160.249 353.384C160.123 352.068 160.468 350.909 161.283 349.906C162.097 348.903 163.131 348.308 164.385 348.12L166.547 347.932C166.609 344.611 166.703 341.258 166.829 337.874C166.891 336.558 167.393 335.461 168.333 334.584C169.273 333.707 170.401 333.299 171.717 333.362C173.033 333.425 174.129 333.926 175.007 334.866C175.884 335.806 176.291 336.934 176.229 338.25L175.947 347.18L179.049 346.992C180.365 346.929 181.493 347.305 182.433 348.12C183.435 348.935 183.968 350 184.031 351.316C184.156 352.632 183.811 353.791 182.997 354.794C182.182 355.734 181.117 356.267 179.801 356.392L175.665 356.58C175.602 359.588 175.571 361.781 175.571 363.16C175.445 369.051 175.477 373.845 175.665 377.542C175.79 381.302 175.978 383.464 176.229 384.028C176.479 384.592 176.667 384.999 176.793 385.25C176.918 385.438 177.137 385.657 177.451 385.908C177.827 386.096 178.203 386.221 178.579 386.284C178.955 386.347 179.644 386.535 180.647 386.848C181.712 387.099 182.84 387.443 184.031 387.882C185.221 388.258 186.099 389.041 186.663 390.232C187.289 391.36 187.383 392.551 186.945 393.804C186.569 394.995 185.785 395.903 184.595 396.53C183.467 397.094 182.276 397.157 181.023 396.718ZM216.543 397.47C211.906 397.157 207.864 396.217 204.417 394.65C200.97 393.083 198.338 391.109 196.521 388.728C194.704 386.347 193.388 384.153 192.573 382.148C191.758 380.143 191.257 378.169 191.069 376.226C190.881 374.221 190.975 371.651 191.351 368.518C191.79 365.886 192.698 363.285 194.077 360.716C195.518 358.147 197.398 355.859 199.717 353.854C202.098 351.786 204.95 350.219 208.271 349.154C211.592 348.026 215.133 347.681 218.893 348.12C222.528 348.559 225.63 349.561 228.199 351.128C230.768 352.632 232.962 354.575 234.779 356.956C236.346 358.961 237.286 360.465 237.599 361.468C237.975 362.471 238.288 363.411 238.539 364.288C238.852 365.165 239.103 365.917 239.291 366.544C239.479 367.171 239.636 367.829 239.761 368.518C239.949 369.145 240.074 369.897 240.137 370.774C240.2 371.965 239.98 373.061 239.479 374.064C238.978 375.067 238.226 375.85 237.223 376.414C236.408 376.727 235.531 376.884 234.591 376.884L218.517 377.166C207.237 377.229 201.597 377.354 201.597 377.542H201.315C202.13 380.738 203.822 383.245 206.391 385.062C209.023 386.879 212.595 387.945 217.107 388.258C219.551 388.383 221.588 388.258 223.217 387.882C225.034 387.381 226.35 386.942 227.165 386.566C227.98 386.127 228.982 385.563 230.173 384.874C231.364 384.435 232.554 384.498 233.745 385.062C234.936 385.626 235.75 386.503 236.189 387.694C236.628 388.885 236.565 390.044 236.001 391.172C235.5 392.3 234.685 393.177 233.557 393.804C232.554 394.368 231.52 394.869 230.455 395.308C229.39 395.684 227.823 396.154 225.755 396.718C223.687 397.282 220.616 397.533 216.543 397.47ZM201.503 368.33C205.138 368.142 214.569 367.954 229.797 367.766C229.233 365.886 228.324 364.1 227.071 362.408C224.564 359.525 221.462 357.865 217.765 357.426C213.88 356.925 210.464 357.771 207.519 359.964C204.574 362.095 202.568 364.883 201.503 368.33ZM340.463 392.582C340.401 393.898 339.899 394.995 338.959 395.872C338.019 396.749 336.891 397.157 335.575 397.094C334.259 397.031 333.163 396.53 332.285 395.59C331.408 394.65 331.001 393.522 331.063 392.206C331.314 390.326 331.408 382.837 331.345 369.74C331.283 356.643 331.251 349.154 331.251 347.274C326.426 353.541 320.849 361.562 314.519 371.338C313.83 372.466 312.827 373.155 311.511 373.406C310.258 373.657 309.099 373.437 308.033 372.748C307.971 372.685 307.908 372.654 307.845 372.654C307.281 372.278 306.811 371.839 306.435 371.338C303.803 367.641 299.354 362.032 293.087 354.512L286.977 347.18C287.165 351.88 287.259 357.269 287.259 363.348C287.259 366.356 287.197 371.087 287.071 377.542C287.009 383.997 286.977 388.885 286.977 392.206C286.977 393.522 286.507 394.65 285.567 395.59C284.69 396.467 283.593 396.906 282.277 396.906C280.961 396.906 279.833 396.467 278.893 395.59C278.016 394.65 277.577 393.522 277.577 392.206C277.577 388.885 277.609 383.997 277.671 377.542C277.797 371.087 277.859 366.325 277.859 363.254C277.859 351.535 277.483 342.104 276.731 334.96C276.606 333.644 276.951 332.485 277.765 331.482C278.58 330.479 279.645 329.915 280.961 329.79C281.588 329.727 282.183 329.79 282.747 329.978C284.189 330.041 285.379 330.636 286.319 331.764L300.325 348.402C304.273 353.102 307.595 357.207 310.289 360.716C318.687 347.932 325.987 338.187 332.191 331.482C332.442 331.231 332.693 331.012 332.943 330.824C333.946 329.884 335.105 329.445 336.421 329.508C337.737 329.571 338.834 330.072 339.711 331.012C340.589 331.952 340.996 333.08 340.933 334.396C340.683 340.976 340.589 350.752 340.651 363.724C340.777 376.633 340.714 386.253 340.463 392.582ZM381.662 395.496C379.406 396.373 376.837 396.875 373.954 397C371.134 397.125 368.502 396.812 366.058 396.06C363.614 395.245 361.452 394.023 359.572 392.394C356.313 389.699 354.214 386.347 353.274 382.336C352.334 378.325 352.303 374.722 353.18 371.526C354.057 368.33 355.373 365.228 357.128 362.22C358.945 359.149 360.888 356.58 362.956 354.512C365.087 352.381 367.531 350.595 370.288 349.154C373.045 347.713 375.928 347.023 378.936 347.086C381.944 347.086 385.109 347.901 388.43 349.53C388.931 349.781 389.464 350.157 390.028 350.658C390.655 351.159 391.187 351.598 391.626 351.974L392.848 353.196C393.224 353.572 393.412 353.791 393.412 353.854C394.415 354.731 394.947 355.859 395.01 357.238C395.825 360.998 396.357 364.946 396.608 369.082C396.859 373.218 396.921 377.103 396.796 380.738C396.733 384.373 396.796 388.227 396.984 392.3C397.047 393.553 396.639 394.65 395.762 395.59C394.885 396.53 393.788 397.031 392.472 397.094C391.156 397.157 390.028 396.749 389.088 395.872C388.148 394.995 387.647 393.929 387.584 392.676V391.266C385.704 393.209 383.73 394.619 381.662 395.496ZM377.432 387.036C378.372 386.785 379.124 386.535 379.688 386.284C380.252 386.033 380.941 385.657 381.756 385.156C382.633 384.655 383.542 384.028 384.482 383.276C385.422 382.524 386.268 381.584 387.02 380.456C387.145 380.331 387.302 380.205 387.49 380.08C387.49 371.62 386.957 364.821 385.892 359.682C385.704 359.431 385.485 359.212 385.234 359.024C385.046 358.773 384.889 358.585 384.764 358.46C384.701 358.335 384.576 358.241 384.388 358.178C384.263 358.053 384.106 357.927 383.918 357.802C380.91 356.173 377.745 356.141 374.424 357.708C371.103 359.212 368.189 362.063 365.682 366.262C363.175 370.523 361.922 374.252 361.922 377.448C361.985 380.581 363.207 383.182 365.588 385.25C367.029 386.441 368.815 387.193 370.946 387.506C373.077 387.819 375.239 387.663 377.432 387.036ZM430.862 397.188C427.29 397.251 423.781 396.624 420.334 395.308C416.95 393.992 414.161 392.081 411.968 389.574C409.712 386.942 408.208 383.809 407.456 380.174C406.767 376.477 406.735 372.967 407.362 369.646C408.051 366.325 409.179 363.129 410.746 360.058C411.999 357.739 413.503 355.671 415.258 353.854C417.013 351.974 419.049 350.407 421.368 349.154C423.749 347.838 426.256 347.149 428.888 347.086C431.583 346.961 434.465 347.525 437.536 348.778C439.165 349.53 440.826 350.721 442.518 352.35L445.526 355.358C446.529 356.173 447.093 357.238 447.218 358.554C447.343 359.87 446.967 361.029 446.09 362.032C445.275 362.972 444.21 363.505 442.894 363.63C441.578 363.755 440.45 363.379 439.51 362.502C438.946 362.063 438.288 361.468 437.536 360.716L435.938 359.118C435.061 358.241 434.34 357.677 433.776 357.426C430.956 356.173 428.261 356.204 425.692 357.52C423.123 358.773 420.929 361.092 419.112 364.476C417.232 367.985 416.292 371.495 416.292 375.004C416.355 378.513 417.295 381.302 419.112 383.37C420.24 384.686 421.869 385.751 424 386.566C426.131 387.381 428.387 387.788 430.768 387.788C435.593 387.663 438.695 385.939 440.074 382.618L439.98 382.148V379.422C440.043 378.106 440.544 377.041 441.484 376.226C442.487 375.349 443.646 374.941 444.962 375.004C446.278 375.067 447.343 375.599 448.158 376.602C449.035 377.542 449.443 378.67 449.38 379.986V382.054C449.443 383.621 449.223 384.999 448.722 386.19C447.281 389.825 444.899 392.551 441.578 394.368C438.319 396.185 434.747 397.125 430.862 397.188ZM498.751 392.488C498.689 393.804 498.187 394.901 497.247 395.778C496.307 396.655 495.179 397.063 493.863 397C492.61 397 491.545 396.53 490.667 395.59C489.79 394.65 489.351 393.553 489.351 392.3C489.351 392.237 489.539 389.292 489.915 383.464C490.291 377.072 490.354 372.215 490.103 368.894C489.539 361.061 486.657 356.956 481.455 356.58C478.698 356.392 476.411 356.831 474.593 357.896C472.839 358.899 471.115 360.685 469.423 363.254C469.298 363.442 469.047 363.881 468.671 364.57C469.11 378.106 469.329 387.381 469.329 392.394C469.329 393.71 468.859 394.838 467.919 395.778C467.042 396.655 465.945 397.094 464.629 397.094C463.313 397.094 462.185 396.655 461.245 395.778C460.368 394.838 459.929 393.71 459.929 392.394C459.929 389.511 459.679 379.767 459.177 363.16C458.801 350.689 458.739 340.788 458.989 333.456C459.052 332.203 459.553 331.137 460.493 330.26C461.433 329.32 462.53 328.881 463.783 328.944C465.099 329.007 466.196 329.508 467.073 330.448C468.013 331.388 468.452 332.516 468.389 333.832C468.327 335.524 468.295 342.073 468.295 353.478C472.306 348.841 477.006 346.741 482.395 347.18C492.798 348.057 498.501 355.045 499.503 368.142C499.691 371.777 499.723 374.941 499.597 377.636C499.535 380.331 499.378 383.307 499.127 386.566C498.877 389.825 498.751 391.799 498.751 392.488ZM510.852 392.488C510.727 387.788 510.727 380.581 510.852 370.868C511.04 361.155 511.134 354.794 511.134 351.786C511.134 350.47 511.573 349.373 512.45 348.496C513.39 347.556 514.518 347.086 515.834 347.086C517.15 347.086 518.247 347.556 519.124 348.496C520.064 349.373 520.534 350.47 520.534 351.786C520.534 354.794 520.44 361.123 520.252 370.774C520.127 380.425 520.127 387.6 520.252 392.3C520.252 393.616 519.814 394.744 518.936 395.684C518.059 396.624 516.962 397.094 515.646 397.094C514.33 397.094 513.202 396.655 512.262 395.778C511.322 394.901 510.852 393.804 510.852 392.488ZM519.594 330.824C520.66 331.889 521.192 333.205 521.192 334.772C521.192 336.339 520.66 337.655 519.594 338.72C518.529 339.785 517.213 340.318 515.646 340.318C514.08 340.318 512.764 339.785 511.698 338.72C510.633 337.655 510.1 336.339 510.1 334.772C510.1 333.205 510.633 331.889 511.698 330.824C512.764 329.759 514.08 329.226 515.646 329.226C517.276 329.163 518.592 329.696 519.594 330.824ZM537.772 397C536.518 397 535.422 396.593 534.482 395.778C533.542 394.901 533.072 393.741 533.072 392.3C533.072 387.349 533.04 383.088 532.978 379.516C532.852 368.863 532.79 359.619 532.79 351.786C532.79 350.345 533.228 349.217 534.106 348.402C534.983 347.587 536.048 347.18 537.302 347.18C538.618 347.18 539.746 347.619 540.686 348.496C541.688 349.311 542.19 350.47 542.19 351.974V354.888C546.075 349.812 551.182 347.274 557.512 347.274C562.964 347.274 567.131 349.185 570.014 353.008C572.959 356.831 574.432 361.969 574.432 368.424C574.432 375.568 574.338 380.268 574.15 382.524L573.68 388.822L573.398 392.864C573.272 394.117 572.771 395.12 571.894 395.872C571.016 396.624 569.982 397 568.792 397C567.538 397 566.442 396.593 565.502 395.778C564.562 394.901 564.092 393.741 564.092 392.3C564.092 391.297 564.311 387.819 564.75 381.866C565.063 377.793 565.22 374.597 565.22 372.278C565.22 366.951 564.468 363.035 562.964 360.528C561.46 357.959 559.141 356.674 556.008 356.674C553.752 356.674 551.402 357.363 548.958 358.742C546.576 360.121 544.32 361.875 542.19 364.006L542.378 377.354L542.472 392.3C542.472 393.741 542.002 394.901 541.062 395.778C540.122 396.593 539.025 397 537.772 397ZM609.066 397.47C604.429 397.157 600.387 396.217 596.94 394.65C593.494 393.083 590.862 391.109 589.044 388.728C587.227 386.347 585.911 384.153 585.096 382.148C584.282 380.143 583.78 378.169 583.592 376.226C583.404 374.221 583.498 371.651 583.874 368.518C584.313 365.886 585.222 363.285 586.6 360.716C588.042 358.147 589.922 355.859 592.24 353.854C594.622 351.786 597.473 350.219 600.794 349.154C604.116 348.026 607.656 347.681 611.416 348.12C615.051 348.559 618.153 349.561 620.722 351.128C623.292 352.632 625.485 354.575 627.302 356.956C628.869 358.961 629.809 360.465 630.122 361.468C630.498 362.471 630.812 363.411 631.062 364.288C631.376 365.165 631.626 365.917 631.814 366.544C632.002 367.171 632.159 367.829 632.284 368.518C632.472 369.145 632.598 369.897 632.66 370.774C632.723 371.965 632.504 373.061 632.002 374.064C631.501 375.067 630.749 375.85 629.746 376.414C628.932 376.727 628.054 376.884 627.114 376.884L611.04 377.166C599.76 377.229 594.12 377.354 594.12 377.542H593.838C594.653 380.738 596.345 383.245 598.914 385.062C601.546 386.879 605.118 387.945 609.63 388.258C612.074 388.383 614.111 388.258 615.74 387.882C617.558 387.381 618.874 386.942 619.688 386.566C620.503 386.127 621.506 385.563 622.696 384.874C623.887 384.435 625.078 384.498 626.268 385.062C627.459 385.626 628.274 386.503 628.712 387.694C629.151 388.885 629.088 390.044 628.524 391.172C628.023 392.3 627.208 393.177 626.08 393.804C625.078 394.368 624.044 394.869 622.978 395.308C621.913 395.684 620.346 396.154 618.278 396.718C616.21 397.282 613.14 397.533 609.066 397.47ZM594.026 368.33C597.661 368.142 607.092 367.954 622.32 367.766C621.756 365.886 620.848 364.1 619.594 362.408C617.088 359.525 613.986 357.865 610.288 357.426C606.403 356.925 602.988 357.771 600.042 359.964C597.097 362.095 595.092 364.883 594.026 368.33ZM651.627 397C646.99 396.185 643.637 394.305 641.569 391.36C640.566 390.044 639.846 388.289 639.407 386.096L639.031 384.028C638.906 383.401 638.78 382.9 638.655 382.524C638.279 381.333 638.404 380.174 639.031 379.046C639.658 377.918 640.598 377.197 641.851 376.884C643.104 376.571 644.295 376.696 645.423 377.26C646.551 377.824 647.303 378.733 647.679 379.986C647.867 380.675 648.055 381.459 648.243 382.336C648.306 382.649 648.337 382.963 648.337 383.276C648.4 383.527 648.525 383.997 648.713 384.686C648.901 385.501 649.34 386.19 650.029 386.754C650.781 387.443 651.909 387.882 653.413 388.07C655.92 388.571 658.614 388.509 661.497 387.882C664.317 387.255 666.51 386.347 668.077 385.156C669.205 384.153 669.675 383.119 669.487 382.054C669.299 380.299 668.202 378.983 666.197 378.106C664.944 377.542 661.685 376.79 656.421 375.85C650.969 374.785 647.115 373.406 644.859 371.714C640.723 368.643 639.376 364.069 640.817 357.99C641.694 354.481 643.48 351.911 646.175 350.282C648.932 348.59 651.972 347.65 655.293 347.462C658.113 347.337 660.964 347.681 663.847 348.496C666.792 349.248 669.299 350.313 671.367 351.692C672.056 352.193 672.777 352.789 673.529 353.478C674.281 354.167 675.002 354.919 675.691 355.734C676.443 356.549 676.882 356.987 677.007 357.05C677.947 357.99 678.417 359.087 678.417 360.34C678.417 361.531 677.947 362.596 677.007 363.536C676.13 364.413 675.033 364.852 673.717 364.852C672.464 364.852 671.367 364.413 670.427 363.536C669.8 362.972 669.174 362.377 668.547 361.75L667.231 360.152C666.855 359.839 666.416 359.525 665.915 359.212C664.724 358.46 663.189 357.833 661.309 357.332C659.429 356.768 657.58 356.517 655.763 356.58C652.442 356.768 650.53 357.927 650.029 360.058C649.465 362.314 649.653 363.787 650.593 364.476C651.721 365.291 654.259 366.105 658.207 366.92C664.035 367.923 668.014 368.894 670.145 369.834C675.284 372.153 678.198 375.881 678.887 381.02C679.451 385.219 677.884 388.853 674.187 391.924C671.367 394.243 667.795 395.841 663.471 396.718C659.335 397.658 655.387 397.752 651.627 397Z" fill="white"/>
</g>
<defs>
<clipPath id="clip0_28_80">
<rect width="1375" height="624" fill="white"/>
</clipPath>
</defs>
</svg>
